<?xml version="1.0" standalone="no"?>
<!DOCTYPE svg PUBLIC "-//W3C//DTD SVG 20010904//EN"
 "http://www.w3.org/TR/2001/REC-SVG-20010904/DTD/svg10.dtd">
<svg version="1.0" xmlns="http://www.w3.org/2000/svg"
 width="512.000000pt" height="512.000000pt" viewBox="0 0 512.000000 512.000000"
 preserveAspectRatio="xMidYMid meet">
<metadata>
Created by potrace 1.14, written by Peter Selinger 2001-2017
</metadata>
<g transform="translate(0.000000,512.000000) scale(0.100000,-0.100000)"
fill="#000000" stroke="none">
<path d="M2378 5115 c-2 -2 -34 -6 -73 -9 -38 -3 -81 -8 -95 -11 -14 -3 -36
-7 -50 -9 -14 -3 -41 -8 -60 -10 -19 -3 -89 -19 -155 -36 -108 -27 -145 -39
-225 -73 -14 -6 -33 -12 -43 -14 -10 -2 -32 -11 -50 -20 -18 -9 -38 -16 -44
-15 -7 2 -13 -2 -13 -8 0 -6 -4 -9 -9 -5 -6 3 -13 -1 -18 -9 -4 -8 -11 -15
-16 -15 -4 0 -29 -10 -55 -22 -26 -12 -50 -21 -54 -21 -5 1 -8 -3 -8 -8 0 -6
-5 -10 -11 -10 -13 0 -133 -72 -137 -82 -2 -5 -10 -8 -18 -8 -8 0 -14 -4 -14
-10 0 -5 -7 -10 -15 -10 -8 0 -15 -4 -15 -10 0 -5 -4 -10 -10 -10 -12 0 -104
-69 -108 -81 -2 -5 -9 -9 -16 -9 -6 0 -19 -8 -29 -17 -9 -10 -37 -36 -63 -58
-65 -56 -234 -224 -234 -233 0 -4 -8 -15 -17 -23 -10 -9 -31 -33 -48 -54 -16
-22 -42 -53 -56 -70 -15 -16 -29 -40 -33 -53 -4 -12 -12 -20 -17 -17 -5 4 -9
1 -9 -5 0 -9 -46 -87 -60 -100 -24 -24 -190 -362 -194 -395 -1 -5 -7 -20 -14
-32 -7 -13 -10 -23 -7 -23 3 0 0 -10 -7 -22 -12 -23 -18 -43 -20 -65 -1 -7 -5
-13 -10 -13 -5 0 -6 -4 -3 -10 3 -5 3 -16 -2 -22 -4 -7 -9 -22 -11 -33 -5 -26
-8 -37 -15 -55 -11 -24 -39 -173 -39 -202 0 -16 -3 -28 -7 -28 -4 0 -6 -12 -6
-27 1 -16 -3 -36 -7 -45 -6 -12 -5 -18 2 -18 6 0 8 -5 3 -12 -11 -19 -16 -87
-15 -243 0 -173 5 -245 15 -245 5 0 6 -4 3 -8 -3 -5 2 -40 10 -78 8 -38 17
-78 18 -89 2 -11 9 -33 15 -50 7 -16 12 -30 11 -30 -3 0 54 -160 75 -210 38
-92 156 -318 168 -323 4 -2 7 -8 7 -13 0 -11 121 -193 132 -197 4 -2 8 -8 8
-14 0 -5 6 -16 13 -23 27 -31 37 -44 37 -51 0 -4 11 -17 25 -30 14 -13 25 -26
24 -30 0 -3 15 -24 35 -46 20 -21 39 -45 43 -53 10 -16 140 -161 205 -227 25
-26 44 -48 41 -48 -2 0 9 -12 26 -26 17 -14 51 -44 74 -67 73 -70 147 -137
151 -137 2 0 21 -17 43 -37 21 -21 56 -51 77 -68 21 -16 45 -36 52 -42 7 -7
15 -13 18 -13 3 0 15 -8 26 -18 44 -38 57 -49 110 -87 30 -21 57 -42 60 -45 3
-3 12 -9 22 -15 36 -22 174 -114 185 -124 7 -6 16 -11 21 -11 5 0 20 -8 33
-18 13 -10 56 -36 94 -57 39 -21 79 -44 91 -52 11 -7 24 -10 27 -6 4 3 7 2 7
-4 0 -6 10 -14 23 -18 12 -4 24 -8 27 -9 3 -1 23 -10 45 -20 69 -31 78 -35
155 -58 163 -49 303 -25 550 95 69 33 128 59 133 59 4 -1 7 3 7 8 0 6 7 10 15
10 7 0 18 7 23 16 5 9 11 16 13 15 13 -2 49 13 49 20 0 5 7 9 15 9 8 0 15 5
15 10 0 6 4 10 10 10 5 0 35 17 66 38 31 20 67 44 80 52 39 25 109 75 114 80
3 3 21 17 40 30 19 13 37 27 40 30 3 3 23 19 45 35 22 16 48 36 57 45 9 8 34
29 55 45 20 17 56 46 78 66 22 20 62 56 89 80 27 24 87 80 133 125 46 44 85
78 88 76 3 -3 5 0 5 7 0 6 10 22 23 34 25 24 187 207 219 247 11 14 31 39 45
55 13 17 37 48 51 70 15 22 34 47 42 57 31 34 40 47 40 55 0 4 14 24 30 43 16
19 30 41 30 48 0 6 4 12 9 12 5 0 12 9 16 19 3 11 17 36 31 57 25 36 150 271
153 286 1 4 11 29 22 55 23 55 89 248 94 278 2 11 8 38 14 60 5 22 10 41 11
43 0 1 1 3 1 5 1 1 3 20 4 42 2 22 4 40 5 40 2 0 3 11 4 25 1 14 4 30 7 35 9
17 -1 430 -11 430 -1 0 -3 20 -5 45 -2 25 -4 45 -5 45 -2 0 -4 13 -14 75 -3
19 -9 46 -12 60 -3 14 -9 43 -14 65 -5 22 -13 52 -19 68 -6 15 -8 27 -5 27 4
0 1 6 -5 14 -6 7 -12 25 -13 40 -1 14 -6 26 -11 26 -5 0 -7 9 -4 20 3 10 1 20
-4 22 -5 2 -11 13 -13 25 -3 11 -12 35 -20 52 -9 17 -16 32 -15 33 3 10 -127
285 -141 298 -3 3 -17 26 -30 53 -14 26 -37 62 -52 80 -16 17 -28 35 -28 39 0
11 -70 102 -81 106 -5 2 -9 9 -9 16 0 6 -8 19 -17 27 -10 9 -33 35 -52 58
-135 167 -399 388 -606 506 -27 16 -53 34 -57 40 -4 5 -8 7 -8 3 0 -4 -28 9
-62 29 -35 19 -71 37 -81 38 -9 2 -23 7 -30 12 -6 4 -14 8 -17 9 -3 0 -23 9
-45 19 -22 9 -41 17 -43 16 -1 -1 -16 6 -32 14 -17 9 -30 12 -30 8 0 -5 -4 -2
-8 4 -5 7 -20 14 -35 15 -15 1 -27 6 -27 10 0 4 -8 8 -18 8 -10 0 -45 8 -78
18 -65 21 -187 49 -249 58 -22 3 -69 10 -105 16 -58 9 -474 21 -482 13z"/>
</g>
</svg>
