<svg id="cascade-layers-funnel" xmlns="http://www.w3.org/2000/svg" viewBox="0 0 936.36 1557.08">
  <defs><style>
    .bar-30, .bar-25, .bar-50, .bar-20, .bar-15, .bar-10, .bar-5, .bar-40, .bar-35 {isolation: isolate;}
    .bar-5 {opacity: 0.05;}
    .bar-10 {opacity: 0.1;}
    .bar-15 {opacity: 0.15;}
    .bar-20 {opacity: 0.2;}
    .bar-25 {opacity: 0.25;}
    .bar-30 {opacity: 0.3;}
    .bar-35 {opacity: 0.35;}
    .bar-40 {opacity: 0.4;}
    .bar-50 {opacity: 0.5;}
    .order-bg {fill: #4aeadc;}
    .selector-bg {fill: #9778d1;}
    .fill-light {fill: #ffffff;}
    .cascade-bg {fill: #cf2aba;}
    .element-bg {fill: #ee2c82;}
    .shadow-bg {fill: #fb6962;}
    .origin-bg {fill: #fcb900;}
  </style></defs>
  <path id="order-bg" class="order-bg" d="M728 1275.38H208.38l11.7 71.2v201.65c0 5.1 2.89 9.15 6.3 8.83 53.76-4.91 434.44-39.78 483.26-46.06 2.9-.38 5.12-4 5.1-8.38-.17-40.45 1.53-156 1.53-156Z"/>
  <path id="selector-bg" class="selector-bg" d="m169.09 1036.35 38.66 235.22H728.6l38.67-235.22H169.09z"/>
  <g id="selector-whitebars">
    <path id="selector-whitebar-5" class="fill-light bar-20" d="M207.75 1271.57H728.6l6.28-38.17h-533.4l6.27 38.17z"/>
    <path id="selector-whitebar-4" class="fill-light bar-15" d="M201.27 1232.13h533.81l6.28-38.16H195l6.27 38.16z"/>
    <path id="selector-whitebar-3" class="fill-light bar-10" d="M194.79 1192.69h546.78l6.27-38.16H188.51l6.28 38.16z"/>
    <path id="selector-whitebar-2" class="fill-light bar-5" d="m182.03 1115.09 6.28 38.17h559.74l6.27-38.17H182.03z"/>
    <path id="selector-whitebar-1" class="fill-light bar-5" d="M767.27 1036.35H169.09l12.94 78.74h572.29l12.95-78.74z"/>
  </g>
  <path id="cascade-bg" class="cascade-bg" d="M168.46 1032.53h599.43l48.25-293.44H120.23l48.23 293.44z"/>
  <g id="cascade-whitebars">
    <path id="cascade-whitebar-6" class="fill-light bar-40" d="M168.53 1032.53h599.43l6.27-38.14H162.26l6.27 38.14z"/>
    <path id="cascade-whitebar-5" class="fill-light bar-35" d="M162.05 993.12h612.39l6.27-38.15H155.78l6.27 38.15z"/>
    <path id="cascade-whitebar-4" class="fill-light bar-30" d="M155.57 953.7h625.35l6.27-38.15H149.3l6.27 38.15z"/>
    <path id="cascade-whitebar-3" class="fill-light bar-25" d="M149.09 914.28H787.4l6.27-38.14H142.82l6.27 38.14z"/>
    <path id="cascade-whitebar-2" class="fill-light bar-20" d="M142.61 874.87h651.27l6.27-38.15h-663.8l6.26 38.15z"/>
    <path id="cascade-whitebar-1" class="fill-light bar-15" d="m119.87 739.09 16.27 96.36h664.22l15.85-96.36H119.87z"/>
  </g>
  <path id="element-bg" class="element-bg" d="M845.85 558.27H90.5l29.18 177.48h697l29.17-177.48z"/>
  <path id="shadow-bg" class="shadow-bg" d="M89.88 554.46h756.6l38.66-235.23H51.21l38.67 235.23z"/>
  <g id="shadow-whitebars">
    <path id="shadow-whitebar-4" class="fill-light bar-15" d="M89.88 554.46h756.6l6.39-38.87H83.49l6.39 38.87z"/>
    <path id="shadow-whitebar-3" class="fill-light bar-10" d="M83.28 514.29h769.8l6.39-38.87H76.89l6.39 38.87z"/>
    <path id="shadow-whitebar-2" class="fill-light bar-5" d="M76.67 474.13h783.01l6.39-38.87H70.28l6.39 38.87z"/>
  </g>
  <path id="origin-bg" class="origin-bg" d="M929.35 0H7a7 7 0 0 0-7 7 7.3 7.3 0 0 0 .09 1.14l50.5 307.28h835.18L936.26 8.14a7 7 0 0 0-5.77-8 7.2 7.2 0 0 0-1.14-.14Z"/>
  <g id="origin-whitebars">
    <path class="fill-light bar-10" d="M24.67 157.75h887.01l6.28-38.14H18.4l6.27 38.14z"/>
    <path class="fill-light bar-20" d="M31.15 197.17h874.06l6.27-38.14H24.88l6.27 38.14z"/>
    <path class="fill-light bar-40" d="M44.11 276h848.14l6.27-38.14H37.84L44.11 276z"/>
    <path class="fill-light bar-30" d="M37.63 236.59h861.1l6.27-38.15H31.36l6.27 38.15z"/>
    <path class="fill-light bar-50" d="M50.59 315.42h835.18l6.27-38.15H44.31l6.28 38.15z"/>
  </g>
  <g id="order-details">
    <path d="M383.43 1467.32v-19.38l3.43-.47v19.85ZM397.53 1465.78a4.73 4.73 0 0 1-3.77 2 3.88 3.88 0 0 1-4.14-3.6 1 1 0 0 1 0-.17c0-2.47 1.8-4.55 7.92-4.76v-.32c0-1.79-.76-2.55-2.67-2.55a9.72 9.72 0 0 0-4.44 1.42l-.69-2.7a11.11 11.11 0 0 1 5.59-1.56c4.12 0 5.72 1.83 5.63 5.51v4.79c0 1 .18 1.16 1.19 1.21l-.26 2.59c-2.55.29-3.74-.5-4.24-1.83Zm0-4.76c-3.34.41-4.56 1.07-4.56 2.5a1.8 1.8 0 0 0 1.85 1.75h.18a3.45 3.45 0 0 0 2.55-1.16ZM408.61 1467.78a11.58 11.58 0 0 1-5.2-1.25l.76-2.67a9.67 9.67 0 0 0 4.52 1.25c1.34 0 2.21-.55 2.21-1.48s-1.13-1.42-2.7-1.8c-2.52-.58-4.53-1.62-4.53-4.14s2.12-4.18 5.34-4.18a11.71 11.71 0 0 1 4.87 1.07l-.75 2.67a10.28 10.28 0 0 0-4.21-1.1c-1.24 0-2 .46-2 1.33s1.13 1.37 2.7 1.74c2.55.61 4.55 1.6 4.55 4.21s-2.17 4.35-5.56 4.35ZM421.68 1467.75c-3 0-4.55-1.3-4.43-4.52l.2-6.3-2.09-.23.09-2.18 2.09-.66v-3h3.31l-.06 3.13h3.77l-.08 2.81h-3.89l-.17 6.18a1.57 1.57 0 0 0 1.29 1.82 1.55 1.55 0 0 0 .48 0 6.46 6.46 0 0 0 2.08-.41l.47 2.79a9.15 9.15 0 0 1-3.06.57ZM438.1 1467.78a11.44 11.44 0 0 1-5.19-1.25l.75-2.67a9.67 9.67 0 0 0 4.52 1.25c1.34 0 2.21-.55 2.21-1.48s-1.13-1.42-2.7-1.8c-2.52-.58-4.52-1.62-4.52-4.14s2.11-4.18 5.33-4.18a11.76 11.76 0 0 1 4.88 1.07l-.76 2.67a10.28 10.28 0 0 0-4.2-1.1c-1.25 0-2 .46-2 1.33s1.13 1.37 2.69 1.74c2.56.61 4.56 1.6 4.56 4.21s-2.15 4.35-5.57 4.35ZM451.18 1467.75c-3 0-4.56-1.3-4.44-4.52l.2-6.3-2.09-.23.09-2.18 2.09-.66.06-3h3.3l-.05 3.13h3.77l-.09 2.81h-3.89l-.13 6.2a1.57 1.57 0 0 0 1.29 1.82 1.55 1.55 0 0 0 .48 0 6.52 6.52 0 0 0 2.09-.41l.46 2.79a8.87 8.87 0 0 1-3.14.55ZM463.71 1467.05l-.79 2.09c-1.33 3.66-2.84 4.76-5.31 4.76a8 8 0 0 1-3.39-.78l1-2.82a4.94 4.94 0 0 0 2.12.64c1 0 1.51-.43 2.24-2.26l.58-1.54-5.22-13.2h3.68l3.33 9.58 3.2-9.58h3.65ZM470.58 1467.32v-19.38l3.42-.47v19.85ZM480.23 1461.37a3.74 3.74 0 0 0 3.82 3.66h.18a8.22 8.22 0 0 0 4.17-1.21l.44 2.84a10.6 10.6 0 0 1-4.85 1.1c-4.29 0-7.13-2.73-7.13-7s2.9-7.25 6.9-7.25c3.54 0 5.51 2.14 5.51 5.42a8.88 8.88 0 0 1-.29 2.24l-8.76.11Zm5.83-2.12v-.25c0-1.8-.78-2.93-2.55-2.93a3.3 3.3 0 0 0-3.19 3.19ZM501.23 1467.37l-4-13.43h3.56l2.32 9.4 2.67-9.37h3.43l2.87 9.31 2-9.34h3.62l-3.91 13.43h-3.37l-3-9.39-2.91 9.39ZM521.56 1451.51a2.06 2.06 0 0 1 0-4.12 2.06 2.06 0 0 1 0 4.12Zm-1.71 15.81V1454l3.42-.49v13.78ZM535.62 1467.32v-8.16c0-2-.78-2.63-2.32-2.63a4.4 4.4 0 0 0-2.95 1.24v9.55h-3.43V1454l3.43-.46v2.11a6.09 6.09 0 0 1 4.4-2.14c2.7 0 4.3 1.74 4.3 4.61v9.2ZM546.76 1467.78a11.44 11.44 0 0 1-5.19-1.25l.75-2.67a9.71 9.71 0 0 0 4.53 1.25c1.33 0 2.2-.55 2.2-1.48s-1.13-1.42-2.7-1.8c-2.52-.58-4.52-1.62-4.52-4.14s2.12-4.18 5.33-4.18a11.76 11.76 0 0 1 4.88 1.07l-.76 2.67a10.28 10.28 0 0 0-4.2-1.1c-1.25 0-2 .46-2 1.33s1.13 1.37 2.69 1.74c2.56.61 4.56 1.6 4.56 4.21s-2.15 4.35-5.57 4.35Z"/>
  </g>
  <g id="order-headline">
    <path d="M386.56 1369.19c-9.43 0-16.62-5.87-16.62-16.63 0-10.1 7.24-16.78 16.73-16.78s16.67 5.82 16.67 16.58c0 10.09-7.29 16.83-16.78 16.83Zm0-26.88c-5.4 0-8.46 4.08-8.46 10 0 6.12 3.16 10.3 8.62 10.3s8.46-4.13 8.46-10.1-3.18-10.2-8.62-10.2ZM416 1368.42h-7.85v-23.3l7.85-1v3.46c1.38-2.39 3.21-3.67 5.71-3.67a8.68 8.68 0 0 1 3.93 1l-1.58 6.94a6.66 6.66 0 0 0-3-.72c-1.94 0-3.67 1-5.1 3.47ZM443.63 1334.71l7.85-1v34.68h-7.85V1366a9.25 9.25 0 0 1-6.63 3.16c-5.86 0-10.15-4.79-10.15-12.28 0-7.86 5.51-12.86 11.89-12.86a15.07 15.07 0 0 1 4.89.82Zm-3.62 15.1c-3.31 0-5.3 2.7-5.3 6.63s2 6.42 4.94 6.42a5.29 5.29 0 0 0 4-1.63v-10.4a6.37 6.37 0 0 0-3.65-1ZM463.57 1358.43c.26 3.16 2.45 5 6.28 5a16 16 0 0 0 7.75-2.29l.76 6.07a21.43 21.43 0 0 1-9.23 1.93c-8.06 0-13.26-4.48-13.26-12.39 0-7.75 5.31-12.8 12.85-12.8 6.74 0 10.41 4 10.41 10a18.39 18.39 0 0 1-.51 4.18l-15.05.25Zm8.26-4.08v-.46c0-2.81-1.17-4.54-3.62-4.54-2.7 0-4.33 2.34-4.59 5.05ZM491.42 1368.42h-7.85v-23.3l7.85-1v3.46c1.38-2.39 3.21-3.67 5.71-3.67a8.68 8.68 0 0 1 3.93 1l-1.58 6.94a6.66 6.66 0 0 0-3-.72c-1.94 0-3.67 1-5.1 3.47ZM523.14 1369.19c-7.14 0-12.6-4.49-12.6-12.55s5.71-12.7 12.91-12.7 12.54 4.59 12.54 12.55-5.76 12.7-12.85 12.7Zm.1-19.28c-3.21 0-4.89 2.6-4.89 6.68s1.73 6.58 4.94 6.58 4.9-2.55 4.9-6.63-1.74-6.63-5-6.63ZM555.88 1340.58a10.62 10.62 0 0 0-4-.92c-2 0-2.75 1.17-2.75 3.47v1.87h6.63l-.15 6.17h-6.12v17.24h-7.86v-17.18l-4.08-.31.21-5 3.82-1.12v-2c.21-6.88 3.32-9.84 9.28-9.84a17.44 17.44 0 0 1 6.43 1.17c.07.02-1.41 6.5-1.41 6.45ZM366 1415.42h-8l-2.35-6.78h-11.9l-2.29 6.78h-8.06l11.32-31.87h10.15Zm-16.26-25.6-4.24 12.5h8.32ZM383.38 1390.94c5.86 0 10.14 4.8 10.14 12.34 0 7.86-5.45 12.85-11.88 12.85a17.63 17.63 0 0 1-4.89-.76V1426h-7.86v-33.86l7.86-1v3a9.22 9.22 0 0 1 6.63-3.2Zm-6.63 18.36a6.51 6.51 0 0 0 3.62 1c3.36 0 5.3-2.65 5.3-6.58s-1.73-6.47-4.95-6.47a5.55 5.55 0 0 0-4 1.63ZM412.45 1390.94c5.86 0 10.14 4.8 10.14 12.34 0 7.86-5.45 12.85-11.88 12.85a17.63 17.63 0 0 1-4.89-.76V1426H398v-33.86l7.86-1v3a9.23 9.23 0 0 1 6.59-3.2Zm-6.63 18.36a6.51 6.51 0 0 0 3.62 1c3.36 0 5.3-2.65 5.3-6.58s-1.73-6.47-4.95-6.47a5.55 5.55 0 0 0-4 1.63ZM433.46 1405.43c.25 3.16 2.45 5 6.27 5a16 16 0 0 0 7.75-2.29l.77 6.07a21.43 21.43 0 0 1-9.23 1.93c-8.06 0-13.26-4.48-13.26-12.39 0-7.75 5.3-12.8 12.85-12.8 6.73 0 10.4 4 10.4 10a17.33 17.33 0 0 1-.51 4.18l-15 .25Zm8.26-4.08v-.46c0-2.81-1.17-4.54-3.62-4.54-2.7 0-4.34 2.34-4.59 5.05ZM466.25 1412.57c-1.68 2-3.57 3.62-6.83 3.62-4.08 0-7.25-2.91-7.25-6.58 0-4.49 3.37-8.11 14-8.42v-.46c0-2.49-1.28-3.62-4.18-3.62a19.24 19.24 0 0 0-8.06 2.4l-1.63-5.76a23.75 23.75 0 0 1 10.91-2.81c8.21 0 10.91 3.73 10.81 10.36v7c0 1.63.31 1.79 1.94 1.94l-.77 5.61c-5.15.66-7.7-.71-8.77-3.31Zm-.05-7.71c-4.85.57-6.63 1.48-6.63 3.57 0 1.53 1.22 2.55 3 2.55a4.84 4.84 0 0 0 3.67-1.58ZM487.36 1415.42h-7.85v-23.3l7.85-1v3.46c1.38-2.39 3.22-3.67 5.72-3.67a8.64 8.64 0 0 1 3.92 1l-1.58 6.94a6.66 6.66 0 0 0-3-.72c-1.93 0-3.67 1-5.1 3.47ZM512.61 1412.57c-1.69 2-3.57 3.62-6.84 3.62-4.08 0-7.24-2.91-7.24-6.58 0-4.49 3.37-8.11 14-8.42v-.46c0-2.49-1.28-3.62-4.18-3.62a19.24 19.24 0 0 0-8.06 2.4l-1.63-5.76a23.75 23.75 0 0 1 10.91-2.81c8.21 0 10.91 3.73 10.81 10.36v7c0 1.63.31 1.79 1.94 1.94l-.77 5.61c-5.15.66-7.7-.71-8.77-3.31Zm-.05-7.71c-4.85.57-6.63 1.48-6.63 3.57 0 1.53 1.22 2.55 2.95 2.55a4.84 4.84 0 0 0 3.68-1.58ZM541.37 1415.42v-14c0-2.86-1.27-3.78-3.37-3.78a6.56 6.56 0 0 0-4.28 1.79v16h-7.85v-23.3l7.85-1v3.87a10.85 10.85 0 0 1 8-4.08c4.74 0 7.54 3.11 7.54 8.16v16.32ZM566.31 1416.19c-7.85 0-12.85-4.39-12.85-12.45 0-7.85 5.1-12.8 13-12.8a18.06 18.06 0 0 1 8.62 2l-1.53 5.92a13.32 13.32 0 0 0-6.27-1.84c-3.77 0-5.86 2.65-5.86 6.48 0 4.23 2.39 6.58 6.06 6.58a11.72 11.72 0 0 0 6.28-1.79l1.17 6a17.66 17.66 0 0 1-8.62 1.9ZM585.54 1405.43c.25 3.16 2.45 5 6.27 5a16 16 0 0 0 7.75-2.29l.77 6.07a21.43 21.43 0 0 1-9.23 1.93c-8.06 0-13.26-4.48-13.26-12.39 0-7.75 5.3-12.8 12.85-12.8 6.73 0 10.4 4 10.4 10a17.33 17.33 0 0 1-.51 4.18l-15 .25Zm8.26-4.08v-.46c0-2.81-1.17-4.54-3.62-4.54-2.7 0-4.34 2.34-4.59 5.05Z"/>
  </g>
  <g id="selector-details">
    <g id="where">
      <path d="M396.2 1252.67a2.25 2.25 0 1 1 2.25-2.25 2.25 2.25 0 0 1-2.25 2.25Zm0 8.56a2.23 2.23 0 0 1-2.32-2.14v-.09a2.21 2.21 0 0 1 2.19-2.23h.13a2.18 2.18 0 0 1 2.27 2.09v.14a2.2 2.2 0 0 1-2.13 2.27ZM404.09 1260.85l-4-13.43h3.57l2.34 9.36 2.66-9.37h3.43l2.91 9.37 2-9.34h3.63l-3.92 13.43h-3.36l-3-9.4-2.9 9.4ZM431.41 1260.78v-8.15c0-2-.78-2.64-2.23-2.64a4.5 4.5 0 0 0-3.05 1.25v9.54h-3.42v-19.37l3.42-.47v8.15a6.2 6.2 0 0 1 4.53-2.12c2.58 0 4.17 1.75 4.17 4.62v9.19ZM441 1254.85a3.72 3.72 0 0 0 3.78 3.66h.22a8.14 8.14 0 0 0 4.18-1.22l.43 2.85a10.53 10.53 0 0 1-4.84 1.1c-4.29 0-7.14-2.73-7.14-7s2.9-7.26 6.91-7.26c3.54 0 5.51 2.15 5.51 5.43a8.86 8.86 0 0 1-.29 2.23l-8.76.15Zm5.83-2.12v-.23c0-1.8-.78-2.93-2.55-2.93a3.29 3.29 0 0 0-3.19 3.19ZM456.29 1260.78h-3.42v-13.28l3.42-.5v2.18a3.88 3.88 0 0 1 3.48-2.21 4.74 4.74 0 0 1 2.38.61l-.75 3.08a4.06 4.06 0 0 0-1.92-.52c-1.19 0-2.29.75-3.19 2.37ZM466.61 1254.85a3.74 3.74 0 0 0 3.82 3.66h.18a8.1 8.1 0 0 0 4.17-1.22l.44 2.85a10.6 10.6 0 0 1-4.85 1.1c-4.29 0-7.13-2.73-7.13-7s2.9-7.26 6.9-7.26c3.54 0 5.51 2.15 5.51 5.43a8.86 8.86 0 0 1-.29 2.23l-8.76.12Zm5.83-2.12v-.23c0-1.8-.78-2.93-2.55-2.93a3.3 3.3 0 0 0-3.19 3.19ZM478.45 1254.21a16.11 16.11 0 0 1 8.35-14.16l1.68 2.26a13.73 13.73 0 0 0 0 23.79l-1.65 2.26a16.1 16.1 0 0 1-8.38-14.15Z"/>
      <path d="M487.72 1266.1a13.72 13.72 0 0 0 0-23.79l1.72-2.26a16.19 16.19 0 0 1 0 28.31Z"/>
      <path class="fill-light" d="M514.87 1240.43h2.93v26.13h-2.93Z"/>
      <path d="m535.31 1251.78-1.88-2.49 4.2-1.71v-.21l-4.14-1.74 1.82-2.52 2.9 3.51.18-.06.43-4.5 2.93 1-2.46 3.86.11.14 4.33-1v3.08l-4.33-1.08-.11.15 2.38 3.88-2.93.9-.35-4.52h-.18Z"/>
    </g>
    <g id="pseudo1">
      <path d="M321.79 1212.38a2.25 2.25 0 1 1 2.25-2.25 2.25 2.25 0 0 1-2.25 2.25Zm0 8.56a2.23 2.23 0 0 1-2.32-2.14v-.13a2.21 2.21 0 0 1 2.19-2.23h.13a2.17 2.17 0 0 1 2.26 2.08v.15a2.2 2.2 0 0 1-2.11 2.27ZM334.35 1206.69c3.54 0 5.86 2.88 5.86 7a6.9 6.9 0 0 1-6.76 7.22 10.45 10.45 0 0 1-2.84-.38v6.35h-3.43v-19.69l3.43-.47v1.69a5.34 5.34 0 0 1 3.74-1.72Zm-3.74 10.74a4.11 4.11 0 0 0 2.52.75c2.29 0 3.6-1.86 3.6-4.35s-1.25-4.26-3.37-4.26a4 4 0 0 0-2.75 1.1ZM347.22 1221a11.7 11.7 0 0 1-5.22-1.28l.76-2.67a9.67 9.67 0 0 0 4.52 1.25c1.34 0 2.21-.55 2.21-1.48s-1.14-1.42-2.7-1.8c-2.52-.58-4.53-1.63-4.53-4.15s2.12-4.18 5.34-4.18a11.88 11.88 0 0 1 4.87 1.08l-.75 2.67a10.29 10.29 0 0 0-4.21-1.11c-1.24 0-2 .47-2 1.34s1.13 1.36 2.7 1.74c2.55.61 4.55 1.59 4.55 4.21s-2.11 4.38-5.54 4.38ZM358.16 1214.56a3.72 3.72 0 0 0 3.78 3.66h.22a8.14 8.14 0 0 0 4.18-1.22l.43 2.85a10.53 10.53 0 0 1-4.84 1.1c-4.3 0-7.14-2.73-7.14-7s2.9-7.26 6.91-7.26c3.53 0 5.51 2.15 5.51 5.43a8.86 8.86 0 0 1-.29 2.23l-8.76.12Zm5.83-2.12v-.23c0-1.8-.79-2.93-2.56-2.93a3.3 3.3 0 0 0-3.19 3.19ZM373.35 1207.13v8.15c0 2 .81 2.61 2.27 2.61a4.36 4.36 0 0 0 2.93-1.16v-9.6H382v13.29l-3.42.46v-2a6.17 6.17 0 0 1-4.41 2c-2.61 0-4.21-1.74-4.21-4.62v-9.19ZM394.44 1201.13l3.42-.47v19.84h-3.42v-1.3a5.37 5.37 0 0 1-3.77 1.74c-3.54 0-5.83-2.87-5.83-7a6.9 6.9 0 0 1 6.75-7.23 10.15 10.15 0 0 1 2.85.44Zm-2.53 8.29c-2.29 0-3.59 1.89-3.59 4.35 0 2.61 1.3 4.27 3.36 4.27a3.9 3.9 0 0 0 2.76-1.11v-6.73a4.17 4.17 0 0 0-2.53-.78ZM407.49 1220.94c-3.92 0-6.76-2.67-6.76-7.11s3-7.16 6.93-7.16 6.76 2.72 6.76 7.13a6.73 6.73 0 0 1-6.3 7.13c-.21.01-.42.07-.63.01Zm.05-11.52c-2.23 0-3.45 1.8-3.45 4.38s1.28 4.35 3.51 4.35 3.42-1.74 3.42-4.32-1.27-4.41-3.48-4.41Z"/>
      <path class="fill-light" d="M430.8 1200.14h2.93v26.13h-2.93Z"/>
      <path d="M452.72 1220.94a2.23 2.23 0 0 1-2.32-2.14v-.13a2.21 2.21 0 0 1 2.19-2.23h.13a2.18 2.18 0 0 1 2.28 2.08v.17a2.2 2.2 0 0 1-2.15 2.25ZM464.27 1220.94c-4.35 0-6.94-2.7-6.94-7.08s2.85-7.17 7.05-7.17a9 9 0 0 1 4.62 1.14l-.73 2.75a6.87 6.87 0 0 0-3.63-1.07c-2.46 0-3.8 1.68-3.8 4.26 0 2.73 1.54 4.32 3.8 4.32a6.87 6.87 0 0 0 3.72-1l.55 2.79a9.36 9.36 0 0 1-4.64 1.06ZM471.75 1220.5v-19.37l3.42-.47v19.84ZM485.84 1219a4.73 4.73 0 0 1-3.77 2 3.88 3.88 0 0 1-4.14-3.6 1 1 0 0 1 0-.17c0-2.47 1.8-4.56 7.92-4.76v-.32c0-1.8-.75-2.55-2.67-2.55a9.69 9.69 0 0 0-4.43 1.42l-.7-2.7a11.15 11.15 0 0 1 5.6-1.57c4.12 0 5.71 1.83 5.63 5.52v4.73c0 1 .17 1.16 1.18 1.22l-.26 2.58c-2.55.29-3.74-.49-4.23-1.83Zm0-4.75c-3.33.4-4.55 1.07-4.55 2.49a1.77 1.77 0 0 0 1.81 1.75h.19a3.4 3.4 0 0 0 2.55-1.16ZM496.92 1221a11.71 11.71 0 0 1-5.19-1.25l.75-2.67a9.75 9.75 0 0 0 4.53 1.25c1.33 0 2.2-.55 2.2-1.48s-1.13-1.42-2.7-1.8c-2.52-.58-4.52-1.63-4.52-4.15s2.12-4.18 5.34-4.18a11.88 11.88 0 0 1 4.87 1.08l-.76 2.67a10.25 10.25 0 0 0-4.2-1.11c-1.25 0-2 .47-2 1.34s1.13 1.36 2.69 1.74c2.56.61 4.56 1.59 4.56 4.21s-2.15 4.35-5.57 4.35ZM509.42 1221a11.71 11.71 0 0 1-5.19-1.25l.75-2.67a9.75 9.75 0 0 0 4.53 1.25c1.33 0 2.2-.55 2.2-1.48s-1.13-1.42-2.7-1.8c-2.52-.58-4.52-1.63-4.52-4.15s2.11-4.18 5.33-4.18a11.89 11.89 0 0 1 4.88 1.08l-.76 2.67a10.25 10.25 0 0 0-4.2-1.11c-1.25 0-2 .47-2 1.34s1.13 1.36 2.69 1.74c2.56.61 4.56 1.59 4.56 4.21s-2.15 4.35-5.57 4.35Z"/>
      <path class="fill-light" d="M531.28 1200.14h2.93v26.13h-2.93Z"/>
      <path d="M551.73 1226.69v-26h8.93v2.58h-5.89v20.83h5.89v2.59ZM569.71 1219a4.73 4.73 0 0 1-3.77 2 3.88 3.88 0 0 1-4.14-3.6 1 1 0 0 1 0-.17c0-2.47 1.8-4.56 7.92-4.76v-.32c0-1.8-.75-2.55-2.67-2.55a9.72 9.72 0 0 0-4.44 1.42l-.69-2.7a11.12 11.12 0 0 1 5.59-1.57c4.12 0 5.72 1.83 5.63 5.52v4.73c0 1 .18 1.16 1.19 1.22l-.26 2.58c-2.55.29-3.74-.49-4.23-1.83Zm0-4.75c-3.34.4-4.55 1.07-4.55 2.49a1.77 1.77 0 0 0 1.81 1.75h.19a3.4 3.4 0 0 0 2.55-1.16ZM581.37 1220.94c-3 0-4.56-1.31-4.44-4.53l.2-6.29-2.09-.23.09-2.18 2.09-.67.06-3h3.3l-.05 3.14h3.77l-.09 2.81h-3.89l-.17 6.18a1.57 1.57 0 0 0 1.29 1.82 1.55 1.55 0 0 0 .48 0 6.8 6.8 0 0 0 2.09-.41l.46 2.79a9.34 9.34 0 0 1-3.1.57ZM591.75 1220.94c-3 0-4.56-1.31-4.44-4.53l.2-6.29-2.09-.23.09-2.18 2.09-.67.06-3H591v3.14h3.77l-.09 2.81h-3.98l-.17 6.18a1.57 1.57 0 0 0 1.29 1.82 1.55 1.55 0 0 0 .48 0 6.8 6.8 0 0 0 2.09-.41l.46 2.79a9.34 9.34 0 0 1-3.1.57ZM600.82 1220.5h-3.42v-13.28l3.42-.5v2.18a3.88 3.88 0 0 1 3.48-2.21 4.72 4.72 0 0 1 2.38.61l-.75 3.08a4.06 4.06 0 0 0-1.92-.52c-1.18 0-2.29.75-3.19 2.37ZM607.17 1224.1h5.89v-20.83h-5.89v-2.58h8.91v26h-8.91Z"/>
    </g>
    <g id="pseudo2">
      <path d="M352.62 1172.68a2.25 2.25 0 0 1-.3-4.49h.3a2.25 2.25 0 0 1 .3 4.49Zm0 8.56a2.22 2.22 0 0 1-2.32-2.12v-.12a2.19 2.19 0 0 1 2.15-2.23h.17a2.17 2.17 0 0 1 2.26 2.08v.15a2.19 2.19 0 0 1-2.12 2.26ZM359.84 1172.68a2.25 2.25 0 0 1-.3-4.49h.3a2.25 2.25 0 0 1 .3 4.49Zm0 8.56a2.22 2.22 0 0 1-2.32-2.12v-.12a2.19 2.19 0 0 1 2.15-2.23h.17a2.17 2.17 0 0 1 2.26 2.08v.15a2.19 2.19 0 0 1-2.12 2.26ZM372.4 1167c3.54 0 5.86 2.87 5.86 7a6.9 6.9 0 0 1-6.76 7.22 10.57 10.57 0 0 1-2.85-.37v6.35h-3.42v-19.7l3.42-.46v1.68a5.36 5.36 0 0 1 3.75-1.72Zm-3.75 10.73a4 4 0 0 0 2.53.76c2.29 0 3.6-1.86 3.6-4.35s-1.25-4.27-3.37-4.27a4 4 0 0 0-2.76 1.1ZM385.27 1181.27a11.44 11.44 0 0 1-5.19-1.25l.75-2.67a9.71 9.71 0 0 0 4.53 1.25c1.33 0 2.2-.55 2.2-1.48s-1.13-1.42-2.69-1.8c-2.53-.58-4.53-1.62-4.53-4.14s2.12-4.18 5.34-4.18a11.71 11.71 0 0 1 4.87 1.07l-.75 2.67a10.28 10.28 0 0 0-4.21-1.1c-1.25 0-2 .46-2 1.33s1.13 1.37 2.7 1.74c2.55.61 4.55 1.6 4.55 4.21s-2.14 4.35-5.57 4.35ZM396.2 1174.86a3.74 3.74 0 0 0 3.81 3.67h.19a8.32 8.32 0 0 0 4.17-1.22l.44 2.84a10.45 10.45 0 0 1-4.85 1.1c-4.29 0-7.13-2.72-7.13-7s2.9-7.25 6.9-7.25c3.54 0 5.51 2.15 5.51 5.42a8.88 8.88 0 0 1-.29 2.24l-8.76.11Zm5.83-2.12v-.23c0-1.8-.78-2.93-2.55-2.93a3.3 3.3 0 0 0-3.19 3.19ZM411.4 1167.43v8.16c0 2 .81 2.61 2.26 2.61a4.36 4.36 0 0 0 2.93-1.16v-9.61H420v13.29l-3.43.46v-2a6.13 6.13 0 0 1-4.41 2c-2.61 0-4.2-1.74-4.2-4.61v-9.2ZM432.48 1161.43l3.43-.46v19.84h-3.43v-1.31a5.37 5.37 0 0 1-3.77 1.74c-3.54 0-5.83-2.87-5.83-7a6.9 6.9 0 0 1 6.76-7.22 10.13 10.13 0 0 1 2.84.43Zm-2.52 8.3c-2.29 0-3.6 1.88-3.6 4.35s1.31 4.26 3.37 4.26a3.81 3.81 0 0 0 2.75-1.1v-6.73a4.15 4.15 0 0 0-2.48-.78ZM445.53 1181.24c-3.91 0-6.75-2.67-6.75-7.1s3-7.17 6.93-7.17 6.76 2.73 6.76 7.14a6.72 6.72 0 0 1-6.29 7.12c-.18.01-.43.02-.65.01Zm.06-11.51c-2.23 0-3.45 1.79-3.45 4.38s1.28 4.35 3.51 4.35 3.42-1.74 3.42-4.32-1.27-4.41-3.48-4.41Z"/>
      <path class="fill-light" d="M468.85 1160.44h2.93v26.14h-2.93Z"/>
      <path d="M491.53 1174.86a3.72 3.72 0 0 0 3.77 3.67h.23a8.33 8.33 0 0 0 4.18-1.22l.43 2.84a10.41 10.41 0 0 1-4.84 1.1c-4.3 0-7.14-2.72-7.14-7s2.9-7.25 6.9-7.25c3.54 0 5.52 2.15 5.52 5.42a8.88 8.88 0 0 1-.29 2.24l-8.76.11Zm5.83-2.12v-.23c0-1.8-.79-2.93-2.56-2.93a3.3 3.3 0 0 0-3.19 3.19ZM503.42 1180.81v-19.38l3.42-.46v19.84ZM513.07 1174.86a3.74 3.74 0 0 0 3.81 3.67h.19a8.32 8.32 0 0 0 4.17-1.22l.44 2.84a10.45 10.45 0 0 1-4.85 1.1c-4.29 0-7.13-2.72-7.13-7s2.9-7.25 6.9-7.25c3.54 0 5.51 2.15 5.51 5.42a8.88 8.88 0 0 1-.29 2.24l-8.76.11Zm5.83-2.12v-.23c0-1.8-.78-2.93-2.55-2.93a3.29 3.29 0 0 0-3.19 3.19ZM541.76 1180.81v-8.13c0-2-.79-2.66-2.21-2.66a4.21 4.21 0 0 0-2.78 1.19v9.6h-3.43v-8.13c0-2-.75-2.66-2.17-2.66a4 4 0 0 0-2.79 1.1v9.69H525v-13.32l3.42-.46v1.97a5.88 5.88 0 0 1 4.27-1.91 3.79 3.79 0 0 1 3.65 2.29 6.4 6.4 0 0 1 4.76-2.29c2.52 0 4.12 1.74 4.12 4.64v9.17ZM551.29 1174.86a3.73 3.73 0 0 0 3.81 3.67h.19a8.32 8.32 0 0 0 4.17-1.22l.44 2.84a10.45 10.45 0 0 1-4.85 1.1c-4.29 0-7.13-2.72-7.13-7s2.9-7.25 6.9-7.25c3.54 0 5.51 2.15 5.51 5.42a8.88 8.88 0 0 1-.29 2.24l-8.76.11Zm5.83-2.12v-.23c0-1.8-.78-2.93-2.55-2.93a3.3 3.3 0 0 0-3.19 3.19ZM571.88 1180.81v-8.15c0-2-.78-2.64-2.32-2.64a4.47 4.47 0 0 0-2.95 1.24v9.55h-3.43v-13.32l3.43-.46v2.12A6.1 6.1 0 0 1 571 1167c2.7 0 4.3 1.74 4.3 4.61v9.2ZM583.6 1181.24c-3 0-4.55-1.3-4.44-4.52l.2-6.3-2.08-.23.08-2.18 2.09-.66.06-3h3.31l-.06 3.13h3.77l-.09 2.81h-3.89l-.17 6.18a1.57 1.57 0 0 0 1.29 1.82 1.55 1.55 0 0 0 .48 0 6.79 6.79 0 0 0 2.09-.4l.46 2.78a8.86 8.86 0 0 1-3.1.57Z"/>
    </g>
    <g id="id">
      <path d="M447.05 1134.28v-2.47h4l1.53-5.77h2.53l-1.57 5.77H458l1.57-5.77h2.52l-1.57 5.77h2.24v2.47h-2.9l-1.05 3.88h3.37v2.47h-4l-1.65 6.18H454l1.65-6.18h-4.38l-1.65 6.18h-2.53l1.66-6.18h-2.24v-2.47h2.87l1.08-3.88Zm5.89-.09-1.1 4.06h4.38l1.13-4.06ZM465.27 1144.66v-18.13h3.51v18.13ZM478.93 1144.66H473v-18.13h6.15c6.18 0 9.77 3.54 9.77 8.94.01 5.59-3.55 9.19-9.99 9.19Zm0-15.14h-2.41v12.15h2.58c3.83 0 6.26-2 6.26-6s-2.26-6.15-6.36-6.15Z"/>
    </g>
  </g>
  <g id="selector-headline">
    <path d="M268.51 1086.39c0-2.14-2.3-2.85-6.53-4-4.64-1.27-10.25-3.41-10.25-9.79 0-5.91 4.33-9.84 12.24-9.84a24.18 24.18 0 0 1 11.93 2.81l-1.58 6.68a23.65 23.65 0 0 0-10.3-2.81c-2.81 0-4.18 1-4.18 2.7 0 2.1 2.91 2.91 6.73 4 4.89 1.33 10 3.57 10 9.64s-4.69 10.35-13.05 10.35a26.26 26.26 0 0 1-12.29-2.9l1.53-6.74a23.58 23.58 0 0 0 10.91 3c2.85-.09 4.84-1.16 4.84-3.1ZM287.74 1085.32c.25 3.16 2.44 5 6.27 5a16.07 16.07 0 0 0 7.75-2.29l.76 6.06a21.15 21.15 0 0 1-9.23 1.94c-8.05 0-13.25-4.49-13.25-12.39s5.3-12.8 12.85-12.8c6.73 0 10.4 4 10.4 9.94a17.41 17.41 0 0 1-.51 4.19l-15 .25Zm8.26-4.08v-.46c0-2.8-1.18-4.54-3.62-4.54-2.71 0-4.34 2.35-4.59 5ZM307.73 1095.32v-33.71l7.85-1v34.68ZM327.62 1085.32c.25 3.16 2.44 5 6.27 5a16.07 16.07 0 0 0 7.75-2.29l.77 6.06a21.29 21.29 0 0 1-9.23 1.94c-8.06 0-13.26-4.49-13.26-12.39s5.3-12.8 12.85-12.8c6.73 0 10.4 4 10.4 9.94a17.41 17.41 0 0 1-.51 4.19l-15 .25Zm8.26-4.08v-.46c0-2.8-1.17-4.54-3.62-4.54-2.71 0-4.34 2.35-4.59 5ZM359.24 1096.08c-7.86 0-12.86-4.38-12.86-12.44 0-7.85 5.1-12.8 13.06-12.8a18.18 18.18 0 0 1 8.62 2l-1.53 5.91a13.34 13.34 0 0 0-6.27-1.83c-3.78 0-5.87 2.65-5.87 6.47 0 4.24 2.4 6.58 6.07 6.58a11.76 11.76 0 0 0 6.27-1.78l1.17 6a18.07 18.07 0 0 1-8.66 1.89ZM381.83 1096.08c-5.87 0-9-2.39-8.72-8.62l.35-9-3.56-.61.15-5 3.57-1.17.1-5.41h7.6l-.05 5.66h5.91l-.15 6.17h-6.32l-.26 8.52c-.1 2.19 1.18 3.11 3.11 3.11a10.34 10.34 0 0 0 3.11-.61l.92 6.12a17.87 17.87 0 0 1-5.76.84ZM402.59 1096.08c-7.14 0-12.6-4.49-12.6-12.54s5.71-12.7 12.9-12.7 12.55 4.59 12.55 12.54-5.77 12.7-12.85 12.7Zm.1-19.27c-3.22 0-4.9 2.6-4.9 6.68s1.74 6.58 4.95 6.58 4.89-2.55 4.89-6.63-1.73-6.63-4.94-6.63ZM427.63 1095.32h-7.86V1072l7.86-1v3.47c1.37-2.4 3.21-3.67 5.71-3.67a8.64 8.64 0 0 1 3.92 1l-1.58 6.93a6.55 6.55 0 0 0-2.95-.71c-1.94 0-3.68 1-5.1 3.47ZM467.81 1086.39c0-2.14-2.29-2.85-6.52-4-4.65-1.27-10.25-3.41-10.25-9.79 0-5.91 4.33-9.84 12.23-9.84a24.19 24.19 0 0 1 11.94 2.81l-1.58 6.68a23.65 23.65 0 0 0-10.3-2.81c-2.81 0-4.19 1-4.19 2.7 0 2.1 2.91 2.91 6.74 4 4.89 1.33 10 3.57 10 9.64s-4.69 10.35-13.05 10.35a26.14 26.14 0 0 1-12.29-2.9l1.53-6.74a23.58 23.58 0 0 0 10.91 3c2.84-.09 4.83-1.16 4.83-3.1ZM495.1 1070.84c5.86 0 10.15 4.79 10.15 12.34 0 7.85-5.46 12.85-11.89 12.85a17.63 17.63 0 0 1-4.89-.76v10.6h-7.85V1072l7.85-1v3a9.2 9.2 0 0 1 6.63-3.16Zm-6.63 18.36a6.51 6.51 0 0 0 3.62 1c3.37 0 5.3-2.65 5.3-6.58s-1.73-6.48-4.94-6.48a5.59 5.59 0 0 0-4 1.63ZM516.11 1085.32c.26 3.16 2.45 5 6.27 5a16.07 16.07 0 0 0 7.75-2.29l.77 6.06a21.15 21.15 0 0 1-9.23 1.94c-8.06 0-13.26-4.49-13.26-12.39s5.3-12.8 12.85-12.8c6.73 0 10.4 4 10.4 9.94a17.41 17.41 0 0 1-.51 4.19l-15 .25Zm8.26-4.08v-.46c0-2.8-1.17-4.54-3.62-4.54-2.7 0-4.33 2.35-4.59 5ZM547.73 1096.08c-7.85 0-12.85-4.38-12.85-12.44 0-7.85 5.1-12.8 13-12.8a18.06 18.06 0 0 1 8.62 2l-1.53 5.91a13.34 13.34 0 0 0-6.27-1.83c-3.77 0-5.87 2.65-5.87 6.47 0 4.24 2.4 6.58 6.07 6.58a11.8 11.8 0 0 0 6.28-1.78l1.17 6a17.54 17.54 0 0 1-8.62 1.89ZM564.71 1068.24c-2.85 0-4.64-1.48-4.64-4.18s1.79-4.24 4.64-4.24 4.64 1.48 4.64 4.24-1.73 4.18-4.64 4.18Zm-3.92 27.08V1072l7.85-1v24.28ZM589 1067.32a7.76 7.76 0 0 0-3.21-.76c-2 0-2.76 1.17-2.76 3.46v1.89h6.27l-.15 6.17h-5.76v17.24h-7.85v-17.19l-4.08-.3.2-5 3.82-1.12.06-2c.2-6.89 3.31-9.85 9.23-9.85a17.22 17.22 0 0 1 5.55 1s-1.32 6.51-1.32 6.46Zm7 1.58c-2.85 0-4.64-1.48-4.64-4.23s1.79-4.23 4.64-4.23 4.65 1.53 4.65 4.23-1.77 4.23-4.65 4.23Zm-3.92 26.42V1072l7.85-1v24.28ZM617 1096.08c-7.86 0-12.86-4.38-12.86-12.44 0-7.85 5.1-12.8 13.06-12.8a18.18 18.18 0 0 1 8.62 2l-1.53 5.91a13.38 13.38 0 0 0-6.28-1.83c-3.77 0-5.86 2.65-5.86 6.47 0 4.24 2.4 6.58 6.07 6.58a11.76 11.76 0 0 0 6.27-1.78l1.17 6a18.13 18.13 0 0 1-8.66 1.89ZM634 1068.24c-2.86 0-4.64-1.48-4.64-4.18s1.78-4.24 4.64-4.24 4.64 1.48 4.64 4.24-1.76 4.18-4.64 4.18Zm-4 27.08V1072l7.86-1v24.28ZM653 1096.08c-5.86 0-9-2.39-8.72-8.62l.36-9-3.57-.61.15-5 3.57-1.17.1-5.41h7.6v5.66h5.92l-.16 6.17h-6.32l-.25 8.52c-.11 2.19 1.17 3.11 3.11 3.11a10.34 10.34 0 0 0 3.11-.61l.91 6.12a17.9 17.9 0 0 1-5.81.84ZM677.47 1094.2l-1.17 3.11c-2.45 6.93-5.41 9-10.4 9a16.41 16.41 0 0 1-7-1.53l2.34-6a9 9 0 0 0 3.68 1.07c1.68 0 2.44-.62 3.36-2.91l.66-1.84-9.28-23.55H668l5 15.6 4.58-15.6H686Z"/>
  </g>
  <g id="cascade-details">
    <g id="first">
      <path d="m441.2 1022.83-11.66-5.4v-2.29l11.63-5.39v2.93l-7.86 3.48v.29l7.89 3.45ZM452.07 1006.47a5.2 5.2 0 0 0-2-.49c-1.25 0-1.77.72-1.77 2.37v1.48h3.89l-.09 2.82h-3.71v10.47H445v-10.44l-2.32-.18.12-2.17 2.18-.64v-1.42c.09-3.83 1.83-5.34 4.85-5.34a8.74 8.74 0 0 1 2.9.58c.01.06-.66 2.99-.66 2.96Zm3.69 1a2 2 0 1 1 0-4.09 2 2 0 1 1 0 4.09Zm-1.76 15.65v-13.29l3.43-.49v13.78ZM464.45 1023.12H461v-13.29l3.42-.49v2.18a3.85 3.85 0 0 1 3.48-2.21 4.64 4.64 0 0 1 2.38.61l-.75 3.08a4 4 0 0 0-1.92-.53c-1.18 0-2.29.76-3.19 2.38ZM476.6 1023.58a11.68 11.68 0 0 1-5.19-1.24l.76-2.67a9.75 9.75 0 0 0 4.52 1.25c1.34 0 2.21-.56 2.21-1.48s-1.14-1.43-2.7-1.8c-2.53-.58-4.53-1.63-4.53-4.15s2.12-4.18 5.34-4.18a11.9 11.9 0 0 1 4.87 1.07l-.75 2.67a10.47 10.47 0 0 0-4.21-1.1c-1.24 0-2 .47-2 1.34s1.13 1.36 2.7 1.74c2.55.61 4.55 1.59 4.55 4.2s-2.17 4.35-5.57 4.35ZM489.68 1023.55c-3 0-4.55-1.3-4.43-4.52l.2-6.3-2.09-.23.09-2.17 2.09-.67v-3h3.31l-.06 3.13h3.77l-.08 2.82h-3.89l-.17 6.18a1.57 1.57 0 0 0 1.77 1.82 6.66 6.66 0 0 0 2.08-.4l.47 2.78a9.06 9.06 0 0 1-3.06.56ZM494.64 1022.83v-2.93l7.86-3.45v-.29l-7.86-3.48v-2.93l11.63 5.39v2.29Z"/>
    </g>
    <g id="last">
      <path d="M444.72 982.38 433.06 977v-2.3l11.63-5.39v2.93l-7.86 3.48v.28l7.89 3.45ZM447.91 982.67v-19.38l3.42-.46v19.84ZM462 981.13a4.71 4.71 0 0 1-3.77 2 3.88 3.88 0 0 1-4.14-3.78c0-2.46 1.79-4.55 7.91-4.75v-.32c0-1.8-.75-2.55-2.66-2.55a9.7 9.7 0 0 0-4.44 1.42l-.7-2.7a11.17 11.17 0 0 1 5.6-1.57c4.12 0 5.71 1.83 5.63 5.52v4.78c0 1 .17 1.16 1.19 1.22l-.26 2.58c-2.56.29-3.75-.49-4.24-1.83Zm0-4.75c-3.33.4-4.55 1.07-4.55 2.49a1.78 1.78 0 0 0 2 1.74 3.4 3.4 0 0 0 2.55-1.16ZM473.08 983.13a11.65 11.65 0 0 1-5.19-1.24l.75-2.67a9.82 9.82 0 0 0 4.53 1.25c1.33 0 2.2-.55 2.2-1.48s-1.13-1.42-2.7-1.8c-2.52-.58-4.52-1.63-4.52-4.15s2.12-4.18 5.34-4.18a11.78 11.78 0 0 1 4.87 1.08l-.75 2.67a10.33 10.33 0 0 0-4.21-1.11c-1.25 0-2 .47-2 1.34s1.13 1.36 2.7 1.74c2.55.61 4.55 1.59 4.55 4.2s-2.15 4.35-5.57 4.35ZM486.16 983.11c-3 0-4.55-1.31-4.44-4.53l.2-6.29-2.08-.24.08-2.17 2.09-.67.06-3h3.31l-.06 3.14h3.77l-.09 2.85h-3.88l-.18 6.18a1.58 1.58 0 0 0 1.77 1.83 6.74 6.74 0 0 0 2.09-.41l.46 2.78a9 9 0 0 1-3.1.53ZM491.12 982.38v-2.93L499 976v-.29l-7.86-3.48v-2.93l11.63 5.39V977Z"/>
    </g>
    <g id="un-layered">
      <path d="M407.37 929v8.15c0 2 .81 2.61 2.26 2.61a4.36 4.36 0 0 0 2.93-1.16V929H416v13.28l-3.42.47v-2a6.13 6.13 0 0 1-4.41 2c-2.61 0-4.2-1.74-4.2-4.61V929ZM428.34 942.32v-8.15c0-2-.79-2.64-2.32-2.64a4.46 4.46 0 0 0-3 1.25v9.54h-3.43V929l3.43-.46v2.12a6.11 6.11 0 0 1 4.41-2.15c2.69 0 4.29 1.74 4.29 4.61v9.2ZM434.37 936.75v-2.93h8.18v2.93ZM445.21 942.32v-19.38l3.42-.46v19.84ZM459.31 940.78a4.73 4.73 0 0 1-3.77 2 3.88 3.88 0 0 1-4.15-3.77c0-2.46 1.8-4.55 7.92-4.75v-.32c0-1.8-.76-2.56-2.67-2.56a9.6 9.6 0 0 0-4.44 1.43l-.7-2.7a11.17 11.17 0 0 1 5.6-1.57c4.12 0 5.72 1.83 5.63 5.51v4.79c0 1 .17 1.16 1.19 1.22l-.26 2.58c-2.56.29-3.74-.49-4.24-1.83Zm0-4.76c-3.34.41-4.56 1.08-4.56 2.5a1.79 1.79 0 0 0 2 1.74 3.42 3.42 0 0 0 2.56-1.16Z"/>
      <path d="m472.94 942.06-.79 2.09c-1.33 3.65-2.84 4.75-5.31 4.75a8 8 0 0 1-3.39-.78l1-2.81a5 5 0 0 0 2.11.64c1 0 1.51-.44 2.24-2.27l.58-1.53-5.2-13.15h3.68l3.34 9.57 3.19-9.57H478ZM482.25 936.37a3.72 3.72 0 0 0 4 3.66 8.23 8.23 0 0 0 4.17-1.22l.44 2.84a10.44 10.44 0 0 1-4.84 1.1c-4.3 0-7.14-2.72-7.14-7s2.9-7.25 6.9-7.25c3.54 0 5.51 2.15 5.51 5.43a8.6 8.6 0 0 1-.29 2.23l-8.75.12Zm5.83-2.11V934c0-1.8-.79-2.93-2.56-2.93a3.31 3.31 0 0 0-3.19 3.19ZM497.56 942.32h-3.43V929l3.43-.49v2.18a3.84 3.84 0 0 1 3.48-2.21 4.69 4.69 0 0 1 2.38.61l-.76 3.08a3.94 3.94 0 0 0-1.91-.53c-1.19 0-2.29.76-3.19 2.38ZM507.88 936.37a3.73 3.73 0 0 0 4 3.66 8.29 8.29 0 0 0 4.18-1.22l.44 2.84a10.46 10.46 0 0 1-4.85 1.1c-4.29 0-7.13-2.72-7.13-7s2.9-7.25 6.9-7.25c3.54 0 5.51 2.15 5.51 5.43a9.05 9.05 0 0 1-.29 2.23l-8.76.12Zm5.83-2.11V934c0-1.8-.78-2.93-2.55-2.93a3.29 3.29 0 0 0-3.19 3.19ZM528.59 922.94l3.42-.46v19.84h-3.42V941a5.4 5.4 0 0 1-3.77 1.74c-3.54 0-5.83-2.87-5.83-7s3-7.22 6.76-7.22a10.1 10.1 0 0 1 2.84.44Zm-2.53 8.3c-2.29 0-3.59 1.88-3.59 4.35s1.3 4.26 3.36 4.26a3.88 3.88 0 0 0 2.76-1.1V932a4.19 4.19 0 0 0-2.53-.76Z"/>
    </g>
    <g id="important-un-layered">
      <path d="M402.26 903.61a2.17 2.17 0 0 1-2.35-2.17 2.13 2.13 0 0 1 2.35-2.12 2.08 2.08 0 0 1 2.27 2.12 2.13 2.13 0 0 1-2.27 2.17Zm-2.06-19.35h4.09l-.84 13h-2.38ZM411.57 889.8v8.2c0 2 .81 2.62 2.27 2.62a4.43 4.43 0 0 0 2.93-1.16v-9.66h3.42v13.29l-3.42.46v-2a6.15 6.15 0 0 1-4.41 2c-2.61 0-4.21-1.74-4.21-4.61v-9.2ZM432.54 903.18V895c0-2-.78-2.64-2.32-2.64a4.48 4.48 0 0 0-3 1.25v9.55h-3.42v-13.3l3.42-.46v2.11a6.15 6.15 0 0 1 4.41-2.14c2.7 0 4.29 1.74 4.29 4.61v9.2ZM438.57 897.61v-2.93h8.18v2.93ZM449.42 903.18V883.8l3.42-.47v19.85ZM463.51 901.64a4.73 4.73 0 0 1-3.77 2 3.88 3.88 0 0 1-4.15-3.77c0-2.47 1.8-4.55 7.92-4.76v-.32c0-1.8-.75-2.55-2.67-2.55a9.77 9.77 0 0 0-4.44 1.42l-.69-2.7a11.11 11.11 0 0 1 5.6-1.56c4.12 0 5.71 1.83 5.62 5.51v4.79c0 1 .18 1.16 1.19 1.21l-.26 2.59c-2.55.29-3.74-.5-4.23-1.83Zm0-4.76c-3.33.41-4.55 1.07-4.55 2.5a1.79 1.79 0 0 0 2 1.74 3.45 3.45 0 0 0 2.55-1.16Z"/>
      <path d="m477.14 902.92-.78 2.08c-1.34 3.66-2.84 4.76-5.31 4.76a8 8 0 0 1-3.39-.78l1-2.82a4.84 4.84 0 0 0 2.12.64c1 0 1.51-.43 2.23-2.26l.58-1.54-5.22-13.2h3.69l3.33 9.58 3.19-9.58h3.66ZM486.45 897.23a3.72 3.72 0 0 0 4 3.65 8.28 8.28 0 0 0 4.18-1.21l.43 2.84a10.38 10.38 0 0 1-4.84 1.1c-4.29 0-7.14-2.73-7.14-7s2.91-7.25 6.91-7.25c3.54 0 5.51 2.14 5.51 5.42a9.07 9.07 0 0 1-.29 2.24l-8.76.11Zm5.83-2.12v-.23c0-1.8-.78-2.93-2.55-2.93a3.29 3.29 0 0 0-3.19 3.19ZM501.76 903.18h-3.42v-13.29l3.42-.49v2.17a3.86 3.86 0 0 1 3.48-2.2 4.57 4.57 0 0 1 2.38.61l-.75 3.07a4 4 0 0 0-1.92-.52c-1.19 0-2.29.75-3.19 2.38ZM512.08 897.23a3.73 3.73 0 0 0 4 3.65 8.22 8.22 0 0 0 4.17-1.21l.44 2.84a10.44 10.44 0 0 1-4.84 1.1c-4.3 0-7.14-2.73-7.14-7s2.9-7.25 6.9-7.25c3.54 0 5.52 2.14 5.52 5.42a8.61 8.61 0 0 1-.3 2.24l-8.76.11Zm5.84-2.12v-.23c0-1.8-.79-2.93-2.56-2.93a3.31 3.31 0 0 0-3.19 3.19ZM532.79 883.8l3.42-.47v19.85h-3.42v-1.31a5.4 5.4 0 0 1-3.77 1.74c-3.54 0-5.83-2.87-5.83-7s3-7.22 6.76-7.22a10 10 0 0 1 2.84.43Zm-2.52 8.29c-2.29 0-3.6 1.89-3.6 4.36s1.31 4.26 3.37 4.26a3.88 3.88 0 0 0 2.75-1.1v-6.73a4.12 4.12 0 0 0-2.52-.79Z"/>
    </g>
    <g id="important-last">
      <path d="m440.52 865.23-11.66-5.4v-2.29l11.63-5.39v2.93l-7.86 3.48v.29l7.89 3.45ZM446.11 866a2.17 2.17 0 0 1-2.35-2.18 2.13 2.13 0 0 1 2.35-2.12 2.08 2.08 0 0 1 2.26 2.12 2.12 2.12 0 0 1-2.26 2.18Zm-2.06-19.35h4.09l-.84 13h-2.38ZM452.11 865.52v-19.38l3.43-.46v19.84ZM466.21 864a4.74 4.74 0 0 1-3.77 2 3.89 3.89 0 0 1-4.15-3.78c0-2.46 1.8-4.55 7.92-4.75v-.32c0-1.8-.76-2.56-2.67-2.56a9.64 9.64 0 0 0-4.44 1.41l-.69-2.7a11.1 11.1 0 0 1 5.59-1.57c4.12 0 5.72 1.83 5.63 5.51V862c0 1 .18 1.16 1.19 1.22l-.26 2.58c-2.55.29-3.74-.49-4.23-1.83Zm0-4.76c-3.34.41-4.56 1.08-4.56 2.5a1.8 1.8 0 0 0 2 1.74 3.41 3.41 0 0 0 2.55-1.16ZM477.29 866a11.69 11.69 0 0 1-5.2-1.24l.76-2.67a9.75 9.75 0 0 0 4.52 1.25c1.34 0 2.21-.56 2.21-1.48s-1.13-1.43-2.7-1.8c-2.52-.58-4.53-1.63-4.53-4.15s2.12-4.18 5.34-4.18a11.79 11.79 0 0 1 4.88 1.08l-.76 2.66a10.43 10.43 0 0 0-4.21-1.1c-1.24 0-2 .47-2 1.34s1.13 1.36 2.7 1.74c2.55.61 4.56 1.59 4.56 4.2s-2.15 4.35-5.57 4.35ZM490.37 866c-3 0-4.56-1.31-4.44-4.53l.2-6.3-2.13-.27.09-2.17 2.09-.67.06-3h3.3l-.06 3.13h3.77l-.08 2.82h-3.89l-.17 6.18a1.57 1.57 0 0 0 1.77 1.82 6.66 6.66 0 0 0 2.08-.4l.47 2.78a9 9 0 0 1-3.06.61ZM495.32 865.23v-2.93l7.86-3.45v-.29l-7.86-3.48v-2.93l11.68 5.39v2.29Z"/>
    </g>
    <g id="important-first">
      <path d="m437 825.83-11.66-5.4v-2.29l11.66-5.39v2.93l-7.86 3.48v.29l7.86 3.45ZM442.59 826.56a2.17 2.17 0 0 1-2.35-2.18 2.13 2.13 0 0 1 2.35-2.12 2.08 2.08 0 0 1 2.26 2.12 2.13 2.13 0 0 1-2.26 2.18Zm-2.06-19.35h4.09l-.84 13h-2.38ZM456.28 809.47a5.25 5.25 0 0 0-2-.49c-1.24 0-1.77.72-1.77 2.38v1.47h3.89l-.09 2.82h-3.71v10.47h-3.4v-10.44l-2.32-.18.11-2.17 2.18-.64v-1.42c.09-3.83 1.83-5.34 4.84-5.34a8.63 8.63 0 0 1 2.9.58c.03.06-.63 2.99-.63 2.96Zm3.68 1a2 2 0 1 1 0-4.09 2 2 0 1 1 0 4.09Zm-1.71 15.63v-13.27l3.42-.49v13.78ZM468.66 826.12h-3.42v-13.29l3.42-.49v2.18a3.86 3.86 0 0 1 3.48-2.21 4.69 4.69 0 0 1 2.38.61l-.76 3.08a3.94 3.94 0 0 0-1.91-.53c-1.19 0-2.29.76-3.19 2.38ZM480.81 826.58a11.65 11.65 0 0 1-5.19-1.24l.75-2.67a9.82 9.82 0 0 0 4.53 1.25c1.33 0 2.2-.56 2.2-1.48s-1.13-1.43-2.7-1.8c-2.52-.58-4.52-1.63-4.52-4.15s2.12-4.18 5.33-4.18a11.79 11.79 0 0 1 4.88 1.08l-.76 2.66a10.38 10.38 0 0 0-4.2-1.1c-1.25 0-2 .47-2 1.34s1.13 1.36 2.69 1.74c2.56.61 4.56 1.59 4.56 4.2s-2.15 4.35-5.57 4.35ZM493.89 826.56c-3 0-4.56-1.31-4.44-4.53l.2-6.29-2.09-.24.09-2.17 2.09-.67.06-3h3.31l-.06 3.13h3.77l-.09 2.82h-3.89l-.17 6.18a1.57 1.57 0 0 0 1.77 1.82 6.72 6.72 0 0 0 2.09-.4L497 826a9 9 0 0 1-3.11.56ZM498.85 825.83v-2.93l7.86-3.45v-.29l-7.86-3.48v-2.93l11.63 5.39v2.29Z"/>
    </g>
  </g>
  <g id="cascade-headline">
    <path d="M322 767a15.91 15.91 0 0 0-8.06-2.29c-5.51 0-9.07 3.72-9.07 9.74s3.36 9.89 9.12 9.89a15.39 15.39 0 0 0 8.42-2.6l1.68 7.19a23.89 23.89 0 0 1-10.45 2.3c-10.2 0-16.93-5.87-16.93-16.58 0-10.3 6.68-16.83 17.18-16.83a24.46 24.46 0 0 1 10.56 2.4ZM341.61 787.57c-1.68 2-3.56 3.62-6.83 3.62-4.08 0-7.24-2.91-7.24-6.58 0-4.49 3.37-8.11 14-8.42v-.46c0-2.49-1.27-3.62-4.18-3.62a19.38 19.38 0 0 0-8.06 2.4l-1.63-5.76a23.79 23.79 0 0 1 10.92-2.81c8.21 0 10.91 3.73 10.81 10.36v7c0 1.63.3 1.79 1.93 1.94l-.76 5.61c-5.15.66-7.7-.71-8.77-3.31Zm-.05-7.71c-4.84.57-6.63 1.48-6.63 3.57 0 1.53 1.23 2.55 3 2.55a4.84 4.84 0 0 0 3.67-1.58ZM363.34 791.19a24.6 24.6 0 0 1-10-2.09l1.53-5.67a19.6 19.6 0 0 0 8.67 2.25c2.09 0 3.22-.72 3.22-1.94s-1.33-1.84-4-2.45c-5.51-1.07-9-3.11-9-7.75 0-4.43 3.88-7.6 10.45-7.6a25.74 25.74 0 0 1 9.64 2l-1.58 5.61a20.51 20.51 0 0 0-8.16-2.14c-1.88 0-2.9.61-2.9 1.79s1.48 1.78 4.08 2.34c5.61 1.23 8.92 3.06 8.92 7.8-.11 4.33-3.88 7.85-10.87 7.85ZM390 791.19c-7.85 0-12.85-4.39-12.85-12.45 0-7.85 5.1-12.8 13.06-12.8a18 18 0 0 1 8.61 2l-1.53 5.92A13.3 13.3 0 0 0 391 772c-3.77 0-5.86 2.65-5.86 6.48 0 4.23 2.39 6.58 6.06 6.58a11.72 11.72 0 0 0 6.28-1.79l1.17 6a17.54 17.54 0 0 1-8.65 1.92ZM415.82 787.57c-1.69 2-3.57 3.62-6.84 3.62-4.07 0-7.24-2.91-7.24-6.58 0-4.49 3.37-8.11 14-8.42v-.46c0-2.49-1.28-3.62-4.18-3.62a19.24 19.24 0 0 0-8.06 2.4l-1.63-5.76a23.75 23.75 0 0 1 10.91-2.81c8.21 0 10.91 3.73 10.81 10.36v7c0 1.63.31 1.79 1.94 1.94l-.77 5.61c-5.15.66-7.7-.71-8.77-3.31Zm-.05-7.71c-4.85.57-6.63 1.48-6.63 3.57 0 1.53 1.22 2.55 3 2.55a4.84 4.84 0 0 0 3.67-1.58ZM444.63 756.71l7.86-1v34.68h-7.86V788a9.25 9.25 0 0 1-6.63 3.16c-5.86 0-10.15-4.79-10.15-12.28 0-7.86 5.51-12.86 11.89-12.86a15.07 15.07 0 0 1 4.89.82Zm-3.63 15.1c-3.31 0-5.3 2.7-5.3 6.63s2 6.42 4.94 6.42a5.29 5.29 0 0 0 4-1.63v-10.4a6.34 6.34 0 0 0-3.64-1.02ZM464.57 780.43c.26 3.16 2.45 5 6.28 5a16 16 0 0 0 7.75-2.29l.76 6.07a21.14 21.14 0 0 1-9.23 1.93c-8.05 0-13.26-4.48-13.26-12.39 0-7.75 5.31-12.8 12.85-12.8 6.74 0 10.41 4 10.41 9.95a18.39 18.39 0 0 1-.51 4.18l-15.05.25Zm8.27-4.08v-.46c0-2.81-1.18-4.54-3.63-4.54-2.7 0-4.33 2.34-4.58 5ZM496.7 790.42v-31.87h8.11v25.09h13.36v6.78ZM535.51 787.57c-1.68 2-3.57 3.62-6.83 3.62-4.08 0-7.24-2.91-7.24-6.58 0-4.49 3.36-8.11 14-8.42v-.46c0-2.49-1.27-3.62-4.18-3.62a19.38 19.38 0 0 0-8.06 2.4l-1.63-5.76a23.75 23.75 0 0 1 10.91-2.81c8.21 0 10.92 3.73 10.81 10.36v7c0 1.63.31 1.79 1.94 1.94l-.76 5.61c-5.15.66-7.7-.71-8.77-3.31Zm0-7.71c-4.84.57-6.63 1.48-6.63 3.57 0 1.53 1.23 2.55 3 2.55a4.84 4.84 0 0 0 3.67-1.58ZM563.51 789.3l-1.17 3.11c-2.45 6.94-5.41 9-10.4 9a16.41 16.41 0 0 1-7-1.53l2.34-6A9 9 0 0 0 551 795c1.68 0 2.44-.61 3.36-2.91l.66-1.83-9.28-23.56h8.42l5 15.6 4.58-15.6h8.37ZM580.85 780.43c.26 3.16 2.45 5 6.28 5a16 16 0 0 0 7.75-2.29l.76 6.07a21.43 21.43 0 0 1-9.23 1.93c-8.06 0-13.26-4.48-13.26-12.39 0-7.75 5.31-12.8 12.85-12.8 6.73 0 10.41 4 10.41 9.95a18.39 18.39 0 0 1-.51 4.18l-15 .25Zm8.26-4.08v-.46c0-2.81-1.17-4.54-3.62-4.54-2.7 0-4.33 2.34-4.59 5ZM608.7 790.42h-7.86v-23.3l7.86-1v3.46c1.37-2.39 3.21-3.67 5.71-3.67a8.68 8.68 0 0 1 3.93 1l-1.59 6.94a6.66 6.66 0 0 0-3-.72c-1.94 0-3.67 1-5.1 3.47ZM629.61 791.19a24.47 24.47 0 0 1-10.05-2.09l1.53-5.67a19.57 19.57 0 0 0 8.67 2.25c2.09 0 3.21-.72 3.21-1.94s-1.32-1.84-4-2.45c-5.5-1.07-9-3.11-9-7.75 0-4.43 3.87-7.6 10.45-7.6a25.78 25.78 0 0 1 9.64 2l-1.58 5.61a20.51 20.51 0 0 0-8.16-2.14c-1.89 0-2.91.61-2.91 1.79s1.48 1.78 4.08 2.34c5.61 1.23 8.93 3.06 8.93 7.8-.05 4.33-3.83 7.85-10.81 7.85Z"/>
  </g>
  <g id="element-details">
    <path d="M399.51 671.51a2.06 2.06 0 1 1 2.12-2.06 1.93 1.93 0 0 1-1.76 2.07Zm-1.71 15.81V674l3.42-.49v13.78ZM413.58 687.32v-8.16c0-2-.79-2.63-2.32-2.63a4.43 4.43 0 0 0-3 1.24v9.55h-3.43V674l3.43-.46v2.11a6.13 6.13 0 0 1 4.41-2.14c2.69 0 4.29 1.74 4.29 4.61v9.2ZM420.56 687.32v-19.38l3.43-.47v19.85ZM429.35 671.51a2.06 2.06 0 1 1 2.12-2.06 1.93 1.93 0 0 1-1.76 2.07Zm-1.71 15.81V674l3.42-.49v13.78ZM443.42 687.32v-8.16c0-2-.79-2.63-2.32-2.63a4.43 4.43 0 0 0-3 1.24v9.55h-3.43V674l3.43-.46v2.11a6.13 6.13 0 0 1 4.41-2.14c2.69 0 4.29 1.74 4.29 4.61v9.2ZM453 681.37a3.74 3.74 0 0 0 3.82 3.66h.18a8.22 8.22 0 0 0 4.17-1.21l.44 2.84a10.6 10.6 0 0 1-4.85 1.1c-4.29 0-7.13-2.73-7.13-7s2.9-7.25 6.9-7.25c3.54 0 5.51 2.14 5.51 5.42a8.88 8.88 0 0 1-.29 2.24l-8.76.11Zm5.83-2.12V679c0-1.8-.78-2.93-2.55-2.93a3.3 3.3 0 0 0-3.19 3.19ZM475.63 687.78a11.57 11.57 0 0 1-5.19-1.25l.76-2.67a9.67 9.67 0 0 0 4.52 1.25c1.33 0 2.2-.55 2.2-1.48s-1.13-1.42-2.69-1.8c-2.53-.58-4.53-1.62-4.53-4.14s2.12-4.18 5.34-4.18a11.71 11.71 0 0 1 4.87 1.07l-.75 2.67a10.28 10.28 0 0 0-4.21-1.1c-1.24 0-2 .46-2 1.33s1.13 1.37 2.7 1.74c2.55.61 4.55 1.6 4.55 4.21s-2.14 4.35-5.57 4.35ZM488.71 687.75c-3 0-4.55-1.3-4.44-4.52l.21-6.3-2.09-.23.09-2.18 2.08-.66.06-3h3.31l-.06 3.13h3.77l-.09 2.81h-3.88l-.18 6.18a1.57 1.57 0 0 0 1.29 1.82 1.55 1.55 0 0 0 .48 0 6.52 6.52 0 0 0 2.09-.41l.47 2.79a9 9 0 0 1-3.11.57ZM501.24 687.05l-.78 2.09c-1.34 3.66-2.85 4.76-5.31 4.76a8.14 8.14 0 0 1-3.4-.78l1-2.82a4.94 4.94 0 0 0 2.12.64c1 0 1.51-.43 2.23-2.26l.58-1.54-5.22-13.2h3.68l3.34 9.58 3.19-9.58h3.66ZM508.11 687.32v-19.38l3.43-.47v19.85ZM517.77 681.37a3.72 3.72 0 0 0 3.78 3.66h.22a8.22 8.22 0 0 0 4.18-1.21l.43 2.84a10.41 10.41 0 0 1-4.84 1.1c-4.29 0-7.14-2.73-7.14-7s2.9-7.25 6.91-7.25c3.54 0 5.51 2.14 5.51 5.42a8.88 8.88 0 0 1-.29 2.24l-8.76.11Zm5.83-2.12V679c0-1.8-.78-2.93-2.55-2.93a3.29 3.29 0 0 0-3.19 3.19ZM533.81 687.78a11.58 11.58 0 0 1-5.2-1.25l.76-2.67a9.67 9.67 0 0 0 4.52 1.25c1.34 0 2.21-.55 2.21-1.48s-1.13-1.42-2.7-1.8c-2.52-.58-4.52-1.62-4.52-4.14s2.11-4.18 5.33-4.18a11.76 11.76 0 0 1 4.88 1.07l-.76 2.67a10.28 10.28 0 0 0-4.2-1.1c-1.25 0-2 .46-2 1.33s1.13 1.37 2.7 1.74c2.55.61 4.56 1.6 4.56 4.21s-2.16 4.35-5.58 4.35Z"/>
  </g>
  <g id="element-headline">
    <path d="M265.83 654.42v-31.87h23.3v6.53h-15.35v6.12h12.34v6.47h-12.34v6.22h15.35v6.53ZM294.13 654.42v-33.71l7.85-1v34.68ZM314 644.43c.25 3.16 2.45 5 6.27 5a16 16 0 0 0 7.75-2.29l.77 6.07a21.43 21.43 0 0 1-9.23 1.93c-8.06 0-13.26-4.48-13.26-12.39 0-7.75 5.3-12.8 12.85-12.8 6.73 0 10.4 4 10.4 9.95a17.33 17.33 0 0 1-.51 4.18l-15 .25Zm8.26-4.08v-.46c0-2.81-1.17-4.54-3.62-4.54-2.7 0-4.33 2.34-4.59 5ZM363.84 654.42v-14c0-2.86-1.22-3.83-3.21-3.83a5.81 5.81 0 0 0-3.82 1.53v16.27H349v-14c0-2.86-1.27-3.83-3.26-3.83a5.92 5.92 0 0 0-3.83 1.43v16.37H334v-23.3l7.85-1v3.31a10.24 10.24 0 0 1 7.55-3.52 6.91 6.91 0 0 1 6.68 4.24c2.2-2.55 5-4.24 8.21-4.24 4.59 0 7.4 3.11 7.4 8.21v16.27ZM383.63 644.43c.26 3.16 2.45 5 6.28 5a16 16 0 0 0 7.75-2.29l.76 6.07a21.14 21.14 0 0 1-9.23 1.93c-8.06 0-13.26-4.48-13.26-12.39 0-7.75 5.31-12.8 12.85-12.8 6.73 0 10.41 4 10.41 9.95a18.39 18.39 0 0 1-.51 4.18l-15.05.25Zm8.26-4.08v-.46c0-2.81-1.17-4.54-3.62-4.54-2.7 0-4.33 2.34-4.59 5ZM419.13 654.42v-14c0-2.86-1.28-3.78-3.37-3.78a6.56 6.56 0 0 0-4.28 1.79v16h-7.85v-23.3l7.85-1V634a10.83 10.83 0 0 1 7.95-4.08c4.75 0 7.55 3.11 7.55 8.16v16.32ZM442 655.19c-5.87 0-9-2.4-8.72-8.62l.35-9-3.57-.61.16-5 3.57-1.17.1-5.41h7.6l-.05 5.66h5.91l-.15 6.17h-6.33l-.25 8.52c-.1 2.19 1.17 3.11 3.11 3.11a10 10 0 0 0 3.11-.61l.92 6.12a17.87 17.87 0 0 1-5.76.84ZM450 645.19v-6.27h16.21v6.27ZM500 654.42h-8l-2.35-6.78h-11.87l-2.3 6.78h-8.05l11.32-31.87h10.15Zm-16.26-25.6-4.24 12.5h8.31ZM512.05 655.19c-5.86 0-9-2.4-8.72-8.62l.36-9-3.57-.61.15-5 3.57-1.17.1-5.41h7.6l-.05 5.66h5.91l-.15 6.17h-6.32l-.26 8.52c-.1 2.19 1.18 3.11 3.11 3.11a10 10 0 0 0 3.11-.61l.92 6.12a17.87 17.87 0 0 1-5.76.84ZM531.28 655.19c-5.87 0-9-2.4-8.72-8.62l.35-9-3.57-.61.16-5 3.57-1.17.1-5.41h7.6V631h5.91l-.15 6.17h-6.32l-.26 8.52c-.1 2.19 1.17 3.11 3.11 3.11a10 10 0 0 0 3.11-.61l.92 6.12a17.9 17.9 0 0 1-5.81.88ZM553.77 651.57c-1.68 2-3.57 3.62-6.84 3.62-4.08 0-7.24-2.91-7.24-6.58 0-4.49 3.37-8.11 14-8.42v-.46c0-2.49-1.28-3.62-4.18-3.62a19.24 19.24 0 0 0-8.06 2.4l-1.63-5.76a23.75 23.75 0 0 1 10.91-2.81c8.21 0 10.91 3.73 10.81 10.36v7c0 1.63.31 1.79 1.94 1.94l-.77 5.61c-5.15.66-7.7-.71-8.77-3.31Zm0-7.71c-4.85.57-6.63 1.48-6.63 3.57 0 1.53 1.22 2.55 3 2.55a4.84 4.84 0 0 0 3.67-1.58ZM578.66 655.19c-7.86 0-12.86-4.39-12.86-12.45 0-7.85 5.1-12.8 13.06-12.8a18.18 18.18 0 0 1 8.62 2l-1.48 5.91a13.39 13.39 0 0 0-6.28-1.84c-3.77 0-5.86 2.65-5.86 6.48 0 4.23 2.4 6.58 6.07 6.58a11.68 11.68 0 0 0 6.27-1.79l1.17 6a17.65 17.65 0 0 1-8.71 1.91ZM607.21 654.42v-14c0-2.86-1.27-3.78-3.26-3.78a6.67 6.67 0 0 0-4.38 1.79v16h-7.86v-33.72l7.86-1V634a10.77 10.77 0 0 1 8-4c4.69 0 7.5 3.11 7.5 8.16v16.32ZM627 644.43c.26 3.16 2.45 5 6.27 5a16.11 16.11 0 0 0 7.76-2.29l.76 6.07a21.43 21.43 0 0 1-9.23 1.93c-8.06 0-13.26-4.48-13.26-12.39 0-7.75 5.3-12.8 12.85-12.8 6.73 0 10.4 4 10.4 9.95a17.83 17.83 0 0 1-.5 4.18l-15 .25Zm8.26-4.08v-.46c0-2.81-1.17-4.54-3.62-4.54-2.7 0-4.33 2.34-4.59 5ZM662.5 620.71l7.85-1v34.68h-7.85V652a9.25 9.25 0 0 1-6.63 3.16c-5.87 0-10.15-4.79-10.15-12.28 0-7.86 5.51-12.86 11.88-12.86a15.13 15.13 0 0 1 4.9.82Zm-3.62 15.1c-3.32 0-5.31 2.7-5.31 6.63s2 6.42 4.95 6.42a5.29 5.29 0 0 0 4-1.63v-10.4a6.34 6.34 0 0 0-3.64-1.02Z"/>
  </g>
  <g id="shadow-details">
    <g id="shadow">
      <path d="M427.34 544.78a11.44 11.44 0 0 1-5.19-1.25l.75-2.67a9.71 9.71 0 0 0 4.53 1.25c1.33 0 2.2-.55 2.2-1.48s-1.13-1.42-2.7-1.8c-2.52-.58-4.52-1.62-4.52-4.14s2.12-4.18 5.34-4.18a11.71 11.71 0 0 1 4.87 1.07l-.75 2.67a10.28 10.28 0 0 0-4.21-1.1c-1.25 0-2 .46-2 1.33s1.13 1.37 2.7 1.74c2.55.61 4.55 1.6 4.55 4.21s-2.15 4.35-5.57 4.35ZM444.39 544.32v-8.12c0-2-.78-2.64-2.23-2.64a4.49 4.49 0 0 0-3 1.25v9.55h-3.43v-19.42l3.43-.47v8.16a6.11 6.11 0 0 1 4.52-2.12c2.58 0 4.18 1.74 4.18 4.61v9.2ZM458.4 542.78a4.73 4.73 0 0 1-3.77 2 3.88 3.88 0 0 1-4.14-3.6 1 1 0 0 1 0-.17c0-2.47 1.8-4.55 7.92-4.76v-.32c0-1.8-.75-2.55-2.67-2.55a9.72 9.72 0 0 0-4.44 1.42l-.69-2.7a11.07 11.07 0 0 1 5.6-1.56c4.11 0 5.71 1.83 5.62 5.51v4.79c0 1 .18 1.16 1.19 1.21l-.26 2.59c-2.55.29-3.74-.5-4.23-1.83Zm0-4.76c-3.34.41-4.55 1.07-4.55 2.5a1.79 1.79 0 0 0 1.83 1.75h.17a3.45 3.45 0 0 0 2.55-1.16ZM474.15 524.94l3.42-.47v19.85h-3.42V543a5.37 5.37 0 0 1-3.77 1.74c-3.54 0-5.83-2.87-5.83-7s2.95-7.22 6.75-7.22a10.14 10.14 0 0 1 2.85.43Zm-2.53 8.26c-2.29 0-3.59 1.89-3.59 4.36s1.3 4.26 3.36 4.26a3.94 3.94 0 0 0 2.76-1.1V534a4.16 4.16 0 0 0-2.53-.8ZM487.2 544.75c-3.92 0-6.76-2.67-6.76-7.11s3-7.16 6.93-7.16 6.76 2.73 6.76 7.13a6.73 6.73 0 0 1-6.3 7.13c-.21.01-.42.02-.63.01Zm.05-11.52c-2.23 0-3.45 1.8-3.45 4.38s1.28 4.36 3.51 4.36 3.42-1.74 3.42-4.33-1.27-4.44-3.48-4.44ZM499.06 544.37l-4-13.43h3.57l2.32 9.4 2.67-9.37H507l2.87 9.31 2-9.34h3.62l-3.92 13.43h-3.36l-3-9.39-2.9 9.39Z"/>
    </g>
    <g id="host">
      <path d="M452 505.59v-8.15c0-2-.78-2.64-2.23-2.64a4.55 4.55 0 0 0-3 1.25v9.54h-3.47v-19.38l3.42-.46v8.15a6.13 6.13 0 0 1 4.53-2.12c2.58 0 4.17 1.74 4.17 4.61v9.2ZM464.92 506c-3.91 0-6.75-2.67-6.75-7.1s3-7.17 6.93-7.17 6.76 2.73 6.76 7.14a6.72 6.72 0 0 1-6.29 7.12c-.22.01-.43.01-.65.01Zm.06-11.51c-2.23 0-3.45 1.8-3.45 4.38s1.28 4.35 3.51 4.35 3.42-1.74 3.42-4.32-1.27-4.41-3.46-4.41ZM478.87 506.05a11.7 11.7 0 0 1-5.19-1.24l.76-2.67a9.66 9.66 0 0 0 4.52 1.24c1.34 0 2.2-.55 2.2-1.48s-1.13-1.42-2.69-1.79c-2.53-.58-4.53-1.63-4.53-4.15s2.12-4.18 5.34-4.18a11.87 11.87 0 0 1 4.87 1.07l-.75 2.67a10.48 10.48 0 0 0-4.21-1.1c-1.24 0-2 .47-2 1.34s1.13 1.36 2.7 1.74c2.55.6 4.55 1.59 4.55 4.2s-2.14 4.35-5.57 4.35ZM492 506c-3 0-4.55-1.3-4.44-4.52l.21-6.3-2.09-.23.08-2.17 2.09-.67.06-3h3.31l-.06 3.13h3.77l-.08 2.82H491l-.18 6.18a1.57 1.57 0 0 0 1.31 1.81 1.42 1.42 0 0 0 .46 0 6.79 6.79 0 0 0 2.09-.4l.47 2.78a9 9 0 0 1-3.15.57Z"/>
    </g>
    <g id="important-host">
      <path d="M441.46 464a2.17 2.17 0 0 1-2.34-2 1.34 1.34 0 0 1 0-.2 2.13 2.13 0 0 1 2.13-2.13h.22a2.09 2.09 0 0 1 2.26 1.9 1.62 1.62 0 0 1 0 .22 2.12 2.12 0 0 1-2.07 2.18Zm-2.06-19.35h4.09l-.84 13h-2.38ZM456.17 463.58v-8.15c0-2-.79-2.64-2.24-2.64a4.49 4.49 0 0 0-3 1.25v9.54h-3.43v-19.37l3.43-.47v8.15a6.13 6.13 0 0 1 4.52-2.11c2.58 0 4.18 1.74 4.18 4.61v9.19ZM469.13 464c-3.92 0-6.76-2.67-6.76-7.11s3-7.16 6.93-7.16 6.76 2.72 6.76 7.13a6.72 6.72 0 0 1-6.28 7.13c-.22.01-.43.01-.65.01Zm.06-11.52c-2.24 0-3.45 1.8-3.45 4.38s1.27 4.35 3.51 4.35 3.42-1.74 3.42-4.32-1.28-4.39-3.48-4.39ZM483.08 464.05a11.72 11.72 0 0 1-5.2-1.25l.76-2.67a9.67 9.67 0 0 0 4.52 1.25c1.34 0 2.21-.55 2.21-1.48s-1.13-1.42-2.7-1.8c-2.52-.58-4.52-1.62-4.52-4.15s2.11-4.17 5.33-4.17a11.76 11.76 0 0 1 4.88 1.07l-.76 2.67a10.25 10.25 0 0 0-4.2-1.11c-1.25 0-2 .47-2 1.34s1.14 1.36 2.7 1.74c2.56.61 4.56 1.59 4.56 4.21s-2.16 4.35-5.58 4.35ZM496.16 464c-3 0-4.56-1.31-4.44-4.53l.2-6.29-2.09-.23.09-2.18 2.09-.67.06-3h3.3l-.05 3.14h3.77l-.09 2.81h-3.89l-.17 6.18a1.57 1.57 0 0 0 1.29 1.82 1.55 1.55 0 0 0 .48 0 6.8 6.8 0 0 0 2.09-.41l.46 2.78a9.1 9.1 0 0 1-3.1.58Z"/>
    </g>
    <g id="important-shadow">
      <path d="M421.39 425.75a2.15 2.15 0 0 1-2.33-2 1.48 1.48 0 0 1 0-.21 2.12 2.12 0 0 1 2.12-2.12h.22a2.08 2.08 0 0 1 2.26 1.88 1.77 1.77 0 0 1 0 .23 2.12 2.12 0 0 1-2.07 2.18Zm-2.05-19.35h4.09l-.85 13h-2.37ZM431.55 425.78a11.45 11.45 0 0 1-5.2-1.25l.76-2.67a9.67 9.67 0 0 0 4.52 1.25c1.34 0 2.21-.55 2.21-1.48s-1.13-1.42-2.7-1.8c-2.52-.58-4.53-1.62-4.53-4.14s2.12-4.18 5.34-4.18a11.71 11.71 0 0 1 4.87 1.07l-.75 2.67a10.28 10.28 0 0 0-4.21-1.1c-1.24 0-2 .46-2 1.33s1.13 1.37 2.7 1.74c2.55.61 4.56 1.6 4.56 4.21s-2.12 4.35-5.57 4.35ZM448.6 425.32v-8.16c0-2-.79-2.63-2.23-2.63a4.54 4.54 0 0 0-3.05 1.24v9.55h-3.42v-19.38l3.42-.47v8.16a6.11 6.11 0 0 1 4.52-2.12c2.59 0 4.18 1.74 4.18 4.61v9.2ZM462.6 423.78a4.69 4.69 0 0 1-3.77 2 3.87 3.87 0 0 1-4.13-3.59 1.09 1.09 0 0 1 0-.18c0-2.47 1.79-4.55 7.91-4.76v-.32c0-1.79-.75-2.55-2.66-2.55a9.72 9.72 0 0 0-4.44 1.42l-.7-2.7a11.17 11.17 0 0 1 5.6-1.56c4.12 0 5.71 1.83 5.63 5.51v4.79c0 1 .17 1.16 1.19 1.21l-.26 2.59c-2.56.29-3.75-.5-4.24-1.83Zm0-4.76c-3.33.41-4.55 1.07-4.55 2.5a1.79 1.79 0 0 0 1.83 1.75h.17a3.42 3.42 0 0 0 2.55-1.16ZM478.35 405.94l3.42-.47v19.85h-3.42V424a5.37 5.37 0 0 1-3.77 1.74c-3.54 0-5.83-2.87-5.83-7a6.9 6.9 0 0 1 6.76-7.22 10.13 10.13 0 0 1 2.84.43Zm-2.52 8.3c-2.29 0-3.6 1.88-3.6 4.35s1.31 4.26 3.37 4.26a3.87 3.87 0 0 0 2.75-1.1V415a4.21 4.21 0 0 0-2.52-.76ZM491.4 425.75c-3.92 0-6.76-2.67-6.76-7.11s3-7.16 6.93-7.16 6.76 2.73 6.76 7.13a6.72 6.72 0 0 1-6.28 7.13c-.22.01-.43.02-.65.01Zm.06-11.51c-2.24 0-3.45 1.79-3.45 4.37s1.27 4.36 3.51 4.36 3.42-1.74 3.42-4.33-1.28-4.4-3.48-4.4ZM503.26 425.37l-4-13.43h3.56l2.32 9.4 2.67-9.37h3.43l2.87 9.31 2-9.34h3.63l-3.92 13.43h-3.37l-3-9.39-2.9 9.39Z"/>
    </g>
  </g>
  <g id="shadow-headline">
    <path d="M264 369.44a29.3 29.3 0 0 1 15.1-25.5l4.13 5.35c-6.07 3.73-11.78 10.87-11.78 20.15s5.71 16.42 11.78 20.14l-4.13 5.35a29.23 29.23 0 0 1-15.1-25.49ZM301.59 372.5c0-2.15-2.3-2.86-6.53-4-4.64-1.28-10.25-3.42-10.25-9.79 0-5.92 4.34-9.85 12.24-9.85a24.34 24.34 0 0 1 11.95 2.78l-1.58 6.68a23.68 23.68 0 0 0-10.3-2.81c-2.8 0-4.18 1-4.18 2.71 0 2.09 2.91 2.9 6.73 4 4.9 1.32 10 3.56 10 9.63s-4.69 10.36-13.06 10.36a26.15 26.15 0 0 1-12.29-2.91l1.53-6.73a23.71 23.71 0 0 0 10.91 2.95c2.84-.02 4.83-1.09 4.83-3.02ZM329.89 381.42v-14c0-2.86-1.27-3.78-3.26-3.78a6.64 6.64 0 0 0-4.39 1.79v16h-7.85v-33.72l7.85-1V361a10.77 10.77 0 0 1 8-4c4.69 0 7.5 3.11 7.5 8.16v16.32ZM356 378.56c-1.69 2-3.57 3.63-6.84 3.63-4.08 0-7.24-2.91-7.24-6.58 0-4.49 3.37-8.11 14-8.42v-.46c0-2.49-1.27-3.62-4.18-3.62a19.12 19.12 0 0 0-8 2.4l-1.64-5.76a23.84 23.84 0 0 1 10.9-2.81c8.21 0 10.91 3.73 10.81 10.35l-.05 7c0 1.63.3 1.79 1.93 1.94l-.76 5.61c-5.15.66-7.7-.71-8.77-3.32Zm-.06-7.7c-4.84.56-6.62 1.48-6.62 3.57 0 1.53 1.22 2.55 2.95 2.55a4.81 4.81 0 0 0 3.73-1.58ZM384.82 347.71l7.85-1v34.68h-7.85V379a9.25 9.25 0 0 1-6.63 3.16c-5.86 0-10.15-4.79-10.15-12.29C368 362 373.55 357 379.92 357a15.13 15.13 0 0 1 4.9.82Zm-3.62 15.1c-3.32 0-5.3 2.7-5.3 6.63s2 6.42 4.94 6.42a5.29 5.29 0 0 0 4-1.63v-10.4a6.34 6.34 0 0 0-3.64-1.02ZM409.66 382.19c-7.14 0-12.6-4.49-12.6-12.55s5.71-12.7 12.9-12.7 12.55 4.59 12.55 12.55-5.76 12.7-12.85 12.7Zm.1-19.28c-3.21 0-4.9 2.6-4.9 6.68s1.74 6.58 4.95 6.58 4.9-2.55 4.9-6.63-1.71-6.63-4.95-6.63ZM431 381.52l-6.68-23.81h7.95l3.21 15.76 4-15.76h8.21l4.08 15.5 2.76-15.5h8.16L456 381.52h-7.95l-4.54-15.6-4.51 15.6ZM462.75 389.58c6-3.72 11.78-10.86 11.78-20.14s-5.76-16.42-11.78-20.15l4.08-5.35a29 29 0 0 1 0 51ZM523.69 358a15.91 15.91 0 0 0-8.06-2.29c-5.5 0-9.07 3.72-9.07 9.74s3.36 9.89 9.12 9.89a15.39 15.39 0 0 0 8.42-2.6l1.68 7.19a23.89 23.89 0 0 1-10.45 2.3c-10.2 0-16.93-5.87-16.93-16.58 0-10.3 6.68-16.83 17.18-16.83a24.46 24.46 0 0 1 10.56 2.4ZM541 382.19c-7.14 0-12.59-4.49-12.59-12.55s5.71-12.7 12.9-12.7 12.54 4.59 12.54 12.55-5.73 12.7-12.85 12.7Zm.1-19.28c-3.21 0-4.89 2.6-4.89 6.68s1.73 6.58 4.94 6.58 4.9-2.55 4.9-6.63-1.7-6.63-4.92-6.63ZM573.72 381.42v-14c0-2.86-1.27-3.78-3.36-3.78a6.61 6.61 0 0 0-4.29 1.79v16h-7.85v-23.3l7.85-1V361a10.85 10.85 0 0 1 8-4.08c4.74 0 7.54 3.11 7.54 8.16v16.32ZM596.57 382.19c-5.86 0-9-2.4-8.72-8.62l.36-9-3.57-.61.15-5 3.57-1.17.1-5.41h7.6V358H602l-.15 6.17h-6.35l-.26 8.52c-.1 2.19 1.18 3.11 3.11 3.11a10 10 0 0 0 3.11-.61l.92 6.12a17.9 17.9 0 0 1-5.81.88ZM612.43 371.42c.26 3.17 2.45 5 6.27 5a16.11 16.11 0 0 0 7.76-2.29l.76 6.07a21.43 21.43 0 0 1-9.23 1.93c-8.06 0-13.26-4.48-13.26-12.39 0-7.75 5.3-12.8 12.85-12.8 6.73 0 10.4 4 10.4 9.95a17.33 17.33 0 0 1-.51 4.18l-15 .25Zm8.26-4.07v-.46c0-2.81-1.17-4.54-3.62-4.54-2.7 0-4.33 2.34-4.59 5ZM646.85 381.42l-4.53-7.6-4.49 7.6h-8.47l8.16-12.09-7.95-11.62h8.31l4.39 6.83 4.23-6.83h8.36L647 369.23l8.16 12.19ZM667.31 382.19c-5.87 0-9-2.4-8.72-8.62l.35-9-3.57-.61.16-5 3.57-1.17.1-5.41h7.6V358h5.91l-.15 6.17h-6.33l-.25 8.52c-.1 2.19 1.17 3.11 3.11 3.11a10 10 0 0 0 3.11-.61l.92 6.12a17.9 17.9 0 0 1-5.81.88Z"/>
  </g>
  <g id="origin-details">
    <g id="important-browser">
      <path d="M416.92 110.55a2.17 2.17 0 0 1-2.34-2 1.21 1.21 0 0 1 0-.19 2.13 2.13 0 0 1 2.13-2.13h.22a2.08 2.08 0 0 1 2.25 1.89 1.77 1.77 0 0 1 0 .23 2.13 2.13 0 0 1-2.09 2.17Zm-2.06-19.35H419l-.84 13h-2.38ZM429.19 110.52a10.49 10.49 0 0 1-3-.46l-3.28.49V90.74l3.42-.47V98a5.39 5.39 0 0 1 3.74-1.71c3.54 0 5.86 2.87 5.86 7s-2.93 7.23-6.74 7.23Zm-.09-11.34a4 4 0 0 0-2.76 1.1V107a4.16 4.16 0 0 0 2.53.75c2.29 0 3.59-1.85 3.59-4.35s-1.24-4.22-3.36-4.22ZM442.15 110.12h-3.43V96.83l3.43-.49v2.17a3.86 3.86 0 0 1 3.48-2.2 4.52 4.52 0 0 1 2.38.61l-.76 3.07a4 4 0 0 0-1.91-.52c-1.19 0-2.29.75-3.19 2.38ZM455.89 110.55c-3.91 0-6.75-2.67-6.75-7.11s3-7.16 6.93-7.16 6.76 2.73 6.76 7.13a6.73 6.73 0 0 1-6.3 7.13c-.22.01-.43.02-.64.01ZM456 99c-2.23 0-3.45 1.8-3.45 4.38s1.28 4.36 3.51 4.36 3.42-1.74 3.42-4.33S458.16 99 456 99ZM467.75 110.17l-4-13.43h3.57l2.32 9.4 2.67-9.37h3.42l2.87 9.31 2-9.34h3.63l-3.92 13.43H477l-3-9.39-2.9 9.39ZM490.52 110.58a11.44 11.44 0 0 1-5.19-1.25l.75-2.67a9.71 9.71 0 0 0 4.53 1.25c1.33 0 2.2-.55 2.2-1.48s-1.13-1.42-2.7-1.8c-2.52-.58-4.52-1.62-4.52-4.14s2.12-4.18 5.34-4.18a11.71 11.71 0 0 1 4.87 1.07l-.75 2.67a10.28 10.28 0 0 0-4.21-1.1c-1.25 0-2 .46-2 1.33s1.13 1.37 2.7 1.74c2.55.61 4.55 1.6 4.55 4.21s-2.15 4.35-5.57 4.35ZM501.45 104.17a3.74 3.74 0 0 0 3.82 3.66h.18a8.22 8.22 0 0 0 4.17-1.21l.44 2.84a10.6 10.6 0 0 1-4.85 1.1c-4.29 0-7.13-2.73-7.13-7S501 96.3 505 96.3c3.54 0 5.51 2.14 5.51 5.42a8.88 8.88 0 0 1-.29 2.24l-8.76.11Zm5.83-2.12v-.23c0-1.8-.78-2.93-2.55-2.93a3.29 3.29 0 0 0-3.19 3.19ZM516.76 110.12h-3.42V96.83l3.42-.49v2.17a3.86 3.86 0 0 1 3.48-2.2 4.52 4.52 0 0 1 2.38.61l-.75 3.07a4 4 0 0 0-1.91-.52c-1.19 0-2.3.75-3.2 2.38Z"/>
    </g>
    <g id="important-user">
      <path d="M440.86 147.91a2.16 2.16 0 0 1-2.34-2 1.48 1.48 0 0 1 0-.21 2.11 2.11 0 0 1 2.11-2.13h.24a2.08 2.08 0 0 1 2.25 1.89 1.77 1.77 0 0 1 0 .23 2.13 2.13 0 0 1-2.09 2.17Zm-2.06-19.35h4.09l-.84 13h-2.38ZM450.17 134.1v8.15c0 2 .81 2.61 2.26 2.61a4.36 4.36 0 0 0 2.93-1.16v-9.6h3.42v13.29l-3.42.46v-2a6.13 6.13 0 0 1-4.41 2c-2.61 0-4.21-1.74-4.21-4.61V134ZM466.58 147.94a11.44 11.44 0 0 1-5.19-1.25l.75-2.67a9.71 9.71 0 0 0 4.53 1.25c1.33 0 2.2-.55 2.2-1.48s-1.13-1.42-2.7-1.8c-2.52-.58-4.52-1.62-4.52-4.14s2.12-4.18 5.34-4.18a11.71 11.71 0 0 1 4.87 1.07l-.75 2.67a10.28 10.28 0 0 0-4.21-1.1c-1.25 0-2 .46-2 1.33s1.13 1.37 2.7 1.74c2.55.61 4.55 1.6 4.55 4.21s-2.15 4.35-5.57 4.35ZM477.51 141.53a3.74 3.74 0 0 0 3.82 3.66h.18a8.22 8.22 0 0 0 4.17-1.21l.44 2.84a10.6 10.6 0 0 1-4.85 1.1c-4.29 0-7.13-2.73-7.13-7s2.9-7.25 6.9-7.25c3.54 0 5.51 2.14 5.51 5.42a8.88 8.88 0 0 1-.29 2.24l-8.76.11Zm5.83-2.12v-.23c0-1.8-.78-2.93-2.55-2.93a3.29 3.29 0 0 0-3.19 3.19ZM492.82 147.48h-3.42v-13.29l3.42-.49v2.17a3.86 3.86 0 0 1 3.48-2.2 4.52 4.52 0 0 1 2.38.61l-.75 3.07a4 4 0 0 0-1.91-.52c-1.19 0-2.3.75-3.2 2.38Z"/>
    </g>
    <g id="important-author">
      <path d="M426.45 187.35a2.15 2.15 0 0 1-2.34-2 1.62 1.62 0 0 1 0-.22 2.12 2.12 0 0 1 2.12-2.12h.23a2.08 2.08 0 0 1 2.24 1.99 1.62 1.62 0 0 1 0 .22 2.13 2.13 0 0 1-2.08 2.18ZM424.38 168h4.1l-.85 13h-2.37ZM439.47 185.38a4.73 4.73 0 0 1-3.77 2 3.88 3.88 0 0 1-4.14-3.6 1 1 0 0 1 0-.17c0-2.47 1.8-4.56 7.92-4.76v-.32c0-1.8-.76-2.55-2.67-2.55a9.72 9.72 0 0 0-4.44 1.42l-.7-2.7a11.17 11.17 0 0 1 5.6-1.56c4.12 0 5.72 1.83 5.63 5.51v4.79c0 1 .17 1.16 1.19 1.21l-.26 2.59c-2.55.29-3.74-.5-4.24-1.83Zm0-4.76c-3.34.41-4.56 1.07-4.56 2.5a1.79 1.79 0 0 0 1.83 1.75h.17a3.47 3.47 0 0 0 2.56-1.16ZM449.7 173.54v8.15c0 2 .81 2.61 2.26 2.61a4.36 4.36 0 0 0 2.93-1.16v-9.6h3.43v13.29l-3.43.46v-2a6.11 6.11 0 0 1-4.4 2c-2.61 0-4.21-1.74-4.21-4.61v-9.2ZM466.7 187.35c-3 0-4.56-1.3-4.44-4.52l.2-6.3-2.09-.23.09-2.18 2.09-.66.06-3h3.3l-.05 3.13h3.77l-.09 2.81h-3.89l-.17 6.18a1.57 1.57 0 0 0 1.29 1.82 1.55 1.55 0 0 0 .48 0 6.52 6.52 0 0 0 2.09-.41l.46 2.79a8.86 8.86 0 0 1-3.1.57ZM481.05 186.92v-8.16c0-2-.78-2.64-2.23-2.64a4.55 4.55 0 0 0-3.05 1.25v9.55h-3.42v-19.38l3.42-.47v8.16a6.13 6.13 0 0 1 4.53-2.12c2.58 0 4.17 1.74 4.17 4.61v9.2ZM494 187.35c-3.91 0-6.75-2.67-6.75-7.11s3-7.16 6.93-7.16 6.76 2.73 6.76 7.13a6.73 6.73 0 0 1-6.3 7.13c-.22.01-.43.02-.64.01Zm.06-11.52c-2.23 0-3.45 1.8-3.45 4.38s1.28 4.36 3.51 4.36 3.42-1.74 3.42-4.33-1.26-4.41-3.47-4.41ZM507.24 186.92h-3.43V173.6l3.43-.49v2.17a3.86 3.86 0 0 1 3.48-2.2 4.52 4.52 0 0 1 2.38.61l-.76 3.07a4 4 0 0 0-1.91-.52c-1.19 0-2.29.75-3.19 2.38Z"/>
    </g>
    <g id="author">
      <path d="M435.26 226.38a4.73 4.73 0 0 1-3.77 2 3.88 3.88 0 0 1-4.14-3.6 1 1 0 0 1 0-.17c0-2.47 1.8-4.55 7.92-4.76v-.32c0-1.8-.75-2.55-2.67-2.55a9.69 9.69 0 0 0-4.43 1.42l-.7-2.7a11.07 11.07 0 0 1 5.6-1.56c4.12 0 5.71 1.83 5.63 5.51v4.79c0 1 .17 1.16 1.18 1.21l-.26 2.59c-2.55.29-3.74-.5-4.23-1.83Zm0-4.76c-3.33.41-4.55 1.07-4.55 2.5a1.79 1.79 0 0 0 1.83 1.75h.17a3.45 3.45 0 0 0 2.55-1.16ZM445.5 214.54v8.15c0 2 .81 2.61 2.26 2.61a4.36 4.36 0 0 0 2.93-1.16v-9.6h3.42v13.29l-3.42.46v-2a6.13 6.13 0 0 1-4.41 2c-2.61 0-4.2-1.74-4.2-4.61v-9.2ZM462.49 228.35c-3 0-4.55-1.3-4.44-4.52l.21-6.3-2.09-.23.09-2.18 2.08-.66.06-3h3.31l-.06 3.13h3.77l-.08 2.81h-3.89l-.18 6.18a1.57 1.57 0 0 0 1.29 1.82 1.55 1.55 0 0 0 .48 0 6.52 6.52 0 0 0 2.09-.41l.47 2.79a9 9 0 0 1-3.11.57ZM476.85 227.92v-8.16c0-2-.79-2.64-2.24-2.64a4.54 4.54 0 0 0-3 1.25v9.55h-3.42v-19.38l3.42-.47v8.16a6.11 6.11 0 0 1 4.52-2.12c2.58 0 4.18 1.74 4.18 4.61v9.2ZM489.81 228.35c-3.92 0-6.76-2.67-6.76-7.11s3-7.16 6.93-7.16 6.76 2.73 6.76 7.13a6.73 6.73 0 0 1-6.3 7.13c-.21.01-.44.02-.63.01Zm.06-11.52c-2.24 0-3.45 1.8-3.45 4.38s1.27 4.36 3.51 4.36 3.42-1.74 3.42-4.33-1.28-4.41-3.48-4.41ZM503 227.92h-3.42v-13.29l3.42-.49v2.17a3.86 3.86 0 0 1 3.48-2.2 4.52 4.52 0 0 1 2.38.61l-.75 3.07a4.06 4.06 0 0 0-1.92-.52c-1.19 0-2.29.75-3.19 2.38Z"/>
    </g>
    <g id="user">
      <path d="M446 251.14v8.15c0 2 .81 2.61 2.26 2.61a4.36 4.36 0 0 0 2.93-1.16v-9.6h3.43v13.29l-3.43.46v-2a6.09 6.09 0 0 1-4.41 2c-2.61 0-4.2-1.74-4.2-4.61v-9.2ZM462.38 265a11.45 11.45 0 0 1-5.2-1.25l.76-2.67a9.67 9.67 0 0 0 4.52 1.25c1.34 0 2.21-.55 2.21-1.48s-1.13-1.42-2.7-1.8c-2.52-.58-4.53-1.62-4.53-4.15s2.12-4.17 5.34-4.17a11.71 11.71 0 0 1 4.87 1.07l-.75 2.67a10.28 10.28 0 0 0-4.21-1.1c-1.24 0-2 .46-2 1.33s1.13 1.37 2.7 1.74c2.55.61 4.56 1.6 4.56 4.21s-2.15 4.35-5.57 4.35ZM473.31 258.57a3.72 3.72 0 0 0 3.78 3.66h.22a8.22 8.22 0 0 0 4.18-1.21l.43 2.84a10.41 10.41 0 0 1-4.84 1.1c-4.29 0-7.14-2.73-7.14-7s2.9-7.25 6.91-7.25c3.54 0 5.51 2.14 5.51 5.42a8.88 8.88 0 0 1-.29 2.24l-8.76.11Zm5.83-2.12v-.23c0-1.8-.78-2.93-2.55-2.93a3.31 3.31 0 0 0-3.2 3.19ZM488.62 264.52h-3.42v-13.29l3.42-.49v2.17a3.86 3.86 0 0 1 3.48-2.2 4.52 4.52 0 0 1 2.38.61l-.76 3.07a4 4 0 0 0-1.91-.52c-1.19 0-2.29.75-3.19 2.38Z"/>
    </g>
    <g id="browser">
      <path d="M425 306a10.49 10.49 0 0 1-3-.46l-3.28.49v-19.81l3.43-.47v7.73a5.39 5.39 0 0 1 3.74-1.71c3.54 0 5.86 2.87 5.86 7S428.78 306 425 306Zm-.09-11.34a4 4 0 0 0-2.75 1.1v6.72a4.11 4.11 0 0 0 2.52.75c2.29 0 3.6-1.85 3.6-4.35s-1.28-4.22-3.39-4.22ZM437.94 305.6h-3.42v-13.29l3.42-.49V294a3.86 3.86 0 0 1 3.48-2.2 4.52 4.52 0 0 1 2.38.61l-.75 3.08a4.06 4.06 0 0 0-1.92-.52c-1.18 0-2.29.75-3.19 2.38ZM451.69 306c-3.92 0-6.76-2.67-6.76-7.11s3-7.16 6.93-7.16 6.76 2.73 6.76 7.13a6.72 6.72 0 0 1-6.28 7.13c-.22.01-.43.01-.65.01Zm.06-11.55c-2.24 0-3.45 1.8-3.45 4.38s1.27 4.36 3.51 4.36 3.42-1.74 3.42-4.33-1.23-4.38-3.48-4.38ZM463.55 305.65l-4-13.43h3.56l2.32 9.4 2.67-9.37h3.43l2.87 9.31 2-9.34h3.6l-3.91 13.43h-3.37l-3-9.39-2.91 9.39ZM486.31 306.06a11.57 11.57 0 0 1-5.19-1.25l.76-2.67a9.67 9.67 0 0 0 4.52 1.25c1.34 0 2.21-.55 2.21-1.48s-1.14-1.42-2.7-1.8c-2.53-.58-4.53-1.62-4.53-4.14s2.12-4.18 5.34-4.18a11.71 11.71 0 0 1 4.87 1.07l-.75 2.67a10.28 10.28 0 0 0-4.21-1.1c-1.24 0-2 .46-2 1.33s1.13 1.37 2.7 1.74c2.55.61 4.55 1.6 4.55 4.21s-2.14 4.35-5.57 4.35ZM497.25 299.65a3.72 3.72 0 0 0 3.78 3.66h.22a8.22 8.22 0 0 0 4.18-1.21l.43 2.84A10.53 10.53 0 0 1 501 306c-4.3 0-7.14-2.73-7.14-7s2.9-7.25 6.91-7.25c3.54 0 5.51 2.14 5.51 5.42a8.76 8.76 0 0 1-.3 2.28l-8.76.11Zm5.83-2.12v-.23c0-1.8-.78-2.93-2.55-2.93a3.31 3.31 0 0 0-3.2 3.19ZM512.56 305.6h-3.42v-13.29l3.42-.49V294a3.86 3.86 0 0 1 3.48-2.2 4.52 4.52 0 0 1 2.38.61l-.76 3.08a4 4 0 0 0-1.91-.52c-1.19 0-2.29.75-3.19 2.38Z"/>
    </g>
  </g>
  <g id="origin-headline">
    <path d="M264.94 61.19c-9.44 0-16.63-5.87-16.63-16.63 0-10.1 7.24-16.78 16.73-16.78s16.67 5.82 16.67 16.58c0 10.09-7.29 16.83-16.77 16.83Zm0-26.88c-5.41 0-8.47 4.08-8.47 10s3.16 10.3 8.62 10.3 8.46-4.13 8.46-10.1-3.21-10.2-8.61-10.2ZM294.36 60.42h-7.85v-23.3l7.85-1v3.46c1.38-2.39 3.22-3.67 5.71-3.67a8.68 8.68 0 0 1 3.93 1l-1.58 6.94a6.66 6.66 0 0 0-3-.72c-1.93 0-3.67 1-5.1 3.47ZM310.89 33.34c-2.86 0-4.64-1.48-4.64-4.18s1.78-4.23 4.64-4.23 4.64 1.48 4.64 4.23-1.74 4.18-4.64 4.18ZM307 60.42v-23.3l7.85-1v24.3ZM319.05 57.72c0-2.25 2-4.44 4.89-5.25a8.06 8.06 0 0 1-4.79-7.35c0-5.15 4.23-9.18 11.27-9.18a18 18 0 0 1 7.24 1.69l6.68-.57.36 6.38-4.59-.72a5.07 5.07 0 0 1 .66 2.61c0 4.79-4.28 8.56-10.4 8.56a17.67 17.67 0 0 1-3.16-.35 2.17 2.17 0 0 0-1.38 1.73c0 1.07 1.22 1.48 4.33 1.48H333c6.48 0 11 1.63 11 6.68 0 5.91-7.09 9.74-14.84 9.74-6.37 0-11.57-2-11.57-6.17 0-2.35 1.88-4.54 5.66-5-2.16-.61-4.2-2.09-4.2-4.28Zm5.35 7.75c0 1.83 2.35 3.11 6 3.11 3.82 0 6.73-1.17 6.73-3.21S335.11 63 331 63c-1.48 0-3.82-.1-4.69-.15a2.91 2.91 0 0 0-1.91 2.62Zm6-16.12c2.39 0 3.47-1.73 3.47-4.38s-1.18-4.18-3.63-4.18c-2.24 0-3.56 1.73-3.56 4.38s1.19 4.18 3.69 4.18ZM351.28 33.34c-2.86 0-4.64-1.48-4.64-4.18s1.78-4.23 4.64-4.23 4.64 1.48 4.64 4.23-1.73 4.18-4.64 4.18Zm-3.93 27.08v-23.3l7.86-1v24.3ZM376.32 60.42v-14c0-2.86-1.28-3.78-3.37-3.78a6.56 6.56 0 0 0-4.28 1.79v16h-7.85V37.12l7.85-1V40a10.83 10.83 0 0 1 7.95-4.08c4.75 0 7.55 3.11 7.55 8.16v16.34ZM409.72 61.19c-6 0-10.25-3.52-10.25-8.72 0-4.44 3.52-7.55 7.24-8.47a8.41 8.41 0 0 1-4.71-7.29c0-4.34 3.67-8.88 10.46-8.88 5.91 0 10.14 3.12 10.14 7.76 0 3.57-3 6.06-6.12 7a22.48 22.48 0 0 1 4.36 3.41l3-5.46h8.31l-7.29 9.54 7.65 9.53-8 1.43-4-5.71c-3.19 3.92-7.06 5.86-10.79 5.86Zm.51-15.19c-2.09 1.22-3.52 3-3.52 4.9 0 2.65 2 4.28 4.59 4.28s4.44-1.48 6.12-3.83a21.29 21.29 0 0 0-7.19-5.35Zm5.61-9.54a3.36 3.36 0 0 0-3.25-3.46h-.37a3.31 3.31 0 0 0-3.42 3.18v.13c0 2.14 1.69 3.42 4.14 4.49 1.63-1 2.9-2.26 2.9-4.3ZM447 60.42V28.55h8.11v31.87ZM491.17 60.42v-14c0-2.86-1.23-3.83-3.22-3.83a5.83 5.83 0 0 0-3.82 1.53v16.3h-7.85v-14c0-2.86-1.28-3.83-3.27-3.83a5.84 5.84 0 0 0-3.82 1.41v16.4h-7.85V37.12l7.85-1v3.31a10.24 10.24 0 0 1 7.55-3.52 7 7 0 0 1 6.68 4.23 10.94 10.94 0 0 1 8.21-4.23c4.58 0 7.39 3.11 7.39 8.21v16.3ZM519 35.94c5.87 0 10.15 4.8 10.15 12.34 0 7.86-5.45 12.85-11.88 12.85a17.7 17.7 0 0 1-4.9-.76V71h-7.85V37.12l7.85-1v3a9.16 9.16 0 0 1 6.63-3.18Zm-6.62 18.36a6.51 6.51 0 0 0 3.62 1c3.37 0 5.31-2.65 5.31-6.58s-1.74-6.47-4.95-6.47a5.59 5.59 0 0 0-4 1.63ZM544.92 61.19c-7.14 0-12.59-4.49-12.59-12.55s5.71-12.7 12.9-12.7 12.54 4.59 12.54 12.55-5.77 12.7-12.85 12.7Zm.1-19.28c-3.21 0-4.89 2.6-4.89 6.68s1.73 6.58 4.94 6.58 4.9-2.55 4.9-6.63-1.73-6.63-5-6.63ZM570 60.42h-7.85v-23.3l7.85-1v3.46c1.38-2.39 3.21-3.67 5.71-3.67a8.68 8.68 0 0 1 3.93 1L578 43.85a6.66 6.66 0 0 0-3-.72c-1.94 0-3.67 1-5.1 3.47ZM592.61 61.19c-5.87 0-9-2.4-8.73-8.62l.36-9-3.57-.57.16-5 3.56-1.17.11-5.41h7.6L592 37h6l-.15 6.17h-6.33l-.25 8.52c-.1 2.19 1.17 3.11 3.11 3.11a10 10 0 0 0 3.11-.61l.92 6.12a17.83 17.83 0 0 1-5.8.88ZM615.1 57.56c-1.69 2-3.57 3.63-6.84 3.63-4.08 0-7.24-2.91-7.24-6.58 0-4.49 3.37-8.11 14-8.42v-.46c0-2.49-1.27-3.62-4.18-3.62a19.3 19.3 0 0 0-8.05 2.4l-1.64-5.76a23.79 23.79 0 0 1 10.92-2.81c8.21 0 10.91 3.73 10.81 10.35v7c0 1.63.3 1.79 1.93 1.94l-.81 5.65c-5.15.66-7.7-.71-8.77-3.32Zm-.06-7.7c-4.84.56-6.62 1.48-6.62 3.57 0 1.53 1.22 2.55 3 2.55A4.84 4.84 0 0 0 615 54.4ZM643.86 60.42v-14c0-2.86-1.28-3.78-3.37-3.78a6.56 6.56 0 0 0-4.28 1.79v16h-7.85V37.12l7.85-1V40a10.85 10.85 0 0 1 8-4.08c4.74 0 7.54 3.11 7.54 8.16v16.34ZM668.8 61.19c-7.86 0-12.85-4.39-12.85-12.45 0-7.85 5.1-12.8 13-12.8a18.06 18.06 0 0 1 8.62 2L676 43.86a13.41 13.41 0 0 0-6.18-1.86C666 42 664 44.66 664 48.49c0 4.23 2.4 6.58 6.07 6.58a11.68 11.68 0 0 0 6.27-1.79l1.18 6a17.72 17.72 0 0 1-8.72 1.91ZM688 50.42c.25 3.17 2.44 5 6.27 5a16.07 16.07 0 0 0 7.73-2.29l.76 6.07a21.14 21.14 0 0 1-9.23 1.93c-8 0-13.25-4.48-13.25-12.39 0-7.75 5.3-12.8 12.85-12.8 6.73 0 10.4 4 10.4 10a17.33 17.33 0 0 1-.51 4.18l-15 .25Zm8.26-4.07v-.46c0-2.81-1.18-4.54-3.62-4.54-2.71 0-4.34 2.34-4.59 5Z"/>
  </g>
</svg>